AtkinsonHyperlegibleMono-MediumItalic.sfdir
StartChar: exclam
Encoding: 33 33 254
Width: 632
GlyphClass: 1
Flags: W
LayerCount: 2
Fore
SplineSet
311 496 m 1,0,-1
 347 668 l 1,1,-1
 463 668 l 1,2,-1
 427 496 l 1,3,-1
 344 211 l 1,4,-1
 273 211 l 1,5,-1
 311 496 l 1,0,-1
224 10 m 128,-1,7
 202 32 202 32 202 64 c 0,8,9
 202 95 202 95 224 117 c 128,-1,10
 246 139 246 139 277 139 c 256,11,12
 308 139 308 139 330.5 117 c 128,-1,13
 353 95 353 95 353 64 c 256,14,15
 353 33 353 33 331 10.5 c 128,-1,16
 309 -12 309 -12 277 -12 c 0,17,6
 246 -12 246 -12 224 10 c 128,-1,7
EndSplineSet
EndChar
StartChar: quotedbl
Encoding: 34 34 284
Width: 632
GlyphClass: 1
Flags: W
LayerCount: 2
Fore
SplineSet
252 668 m 1,0,-1
 361 668 l 1,1,-1
 294 426 l 1,2,-1
 217 426 l 1,3,-1
 252 668 l 1,0,-1
449 668 m 1,4,-1
 559 668 l 1,5,-1
 492 426 l 1,6,-1
 414 426 l 1,7,-1
 449 668 l 1,4,-1
EndSplineSet
EndChar
StartChar: parenleft
Encoding: 40 40 268
Width: 632
GlyphClass: 1
Flags: W
LayerCount: 2
Fore
SplineSet
190.5 8 m 128,-1,1
 160 97 160 97 160 189 c 0,2,3
 160 339 160 339 241 473 c 128,-1,4
 322 607 322 607 466 708 c 1,5,-1
 606 708 l 1,6,7
 457 611 457 611 362 477 c 128,-1,8
 267 343 267 343 267 193 c 0,9,10
 267 104 267 104 301 13.5 c 128,-1,11
 335 -77 335 -77 400 -162 c 1,12,-1
 280 -162 l 1,13,0
 221 -81 221 -81 190.5 8 c 128,-1,1
EndSplineSet
EndChar
StartChar: zero
Encoding: 48 48 229
Width: 632
GlyphClass: 1
Flags: W
LayerCount: 2
Fore
SplineSet
115 57 m 128,-1,1
 55 126 55 126 55 245 c 0,2,3
 55 342 55 342 89 443 c 128,-1,4
 123 544 123 544 196 613 c 128,-1,5
 269 682 269 682 378 682 c 0,6,7
 495 682 495 682 555 612.5 c 128,-1,8
 615 543 615 543 615 426 c 0,9,10
 615 330 615 330 580.5 228.5 c 128,-1,11
 546 127 546 127 473.5 57.5 c 128,-1,12
 401 -12 401 -12 292 -12 c 0,13,0
 175 -12 175 -12 115 57 c 128,-1,1
400 116 m 1,15,-1
 227 491 l 1,16,17
 195 437 195 437 179 367.5 c 128,-1,18
 163 298 163 298 163 240 c 0,19,20
 163 163 163 163 194 117.5 c 128,-1,21
 225 72 225 72 294 72 c 0,22,14
 353 72 353 72 400 116 c 1,15,-1
491 302.5 m 128,-1,24
 506 370 506 370 506 428 c 0,25,26
 506 505 506 505 475 551.5 c 128,-1,27
 444 598 444 598 376 598 c 0,28,29
 318 598 318 598 272 555 c 1,30,-1
 445 182 l 1,31,23
 476 235 476 235 491 302.5 c 128,-1,24
EndSplineSet
Substitution2: "'zero' Slashed Zero in Latin lookup 10 subtable" zero.zero
AlternateSubs2: "'aalt' Access All Alternates in Latin lookup 0 subtable" zero.zero
EndChar
StartChar: three
Encoding: 51 51 232
Width: 632
GlyphClass: 5
Flags: W
LayerCount: 2
Fore
SplineSet
137 29.5 m 128,-1,1
 74 71 74 71 61 150 c 1,2,-1
 163 181 l 1,3,4
 169 127 169 127 206.5 100 c 128,-1,5
 244 73 244 73 298 73 c 0,6,7
 359 73 359 73 399 108.5 c 128,-1,8
 439 144 439 144 439 200 c 0,9,10
 439 253 439 253 395.5 281.5 c 128,-1,11
 352 310 352 310 290 310 c 2,12,-1
 271 310 l 1,13,-1
 288 389 l 1,14,-1
 351 389 l 2,15,16
 414 389 414 389 451.5 422.5 c 128,-1,17
 489 456 489 456 489 506 c 0,18,19
 489 547 489 547 456 571.5 c 128,-1,20
 423 596 423 596 375 596 c 0,21,22
 325 596 325 596 287 570 c 128,-1,23
 249 544 249 544 233 495 c 1,24,-1
 134 531 l 1,25,26
 168 607 168 607 233.5 643.5 c 128,-1,27
 299 680 299 680 379 680 c 0,28,29
 438 680 438 680 488.5 662 c 128,-1,30
 539 644 539 644 569.5 607.5 c 128,-1,31
 600 571 600 571 600 519 c 0,32,33
 600 455 600 455 560 405 c 128,-1,34
 520 355 520 355 451 341 c 1,35,36
 499 323 499 323 525 285 c 128,-1,37
 551 247 551 247 551 200 c 0,38,39
 551 137 551 137 516 89 c 128,-1,40
 481 41 481 41 422 14.5 c 128,-1,41
 363 -12 363 -12 292 -12 c 0,42,0
 200 -12 200 -12 137 29.5 c 128,-1,1
EndSplineSet
Substitution2: "'sups' Superscript in Latin lookup 6 subtable" uni00B3
AlternateSubs2: "'aalt' Access All Alternates in Latin lookup 0 subtable" uni00B3
EndChar
StartChar: five
Encoding: 53 53 234
Width: 632
GlyphClass: 1
Flags: W
LayerCount: 2
Fore
SplineSet
137.5 32.5 m 128,-1,1
 80 77 80 77 64 150 c 1,2,-1
 162 180 l 1,3,4
 167 130 167 130 199.5 101.5 c 128,-1,5
 232 73 232 73 289 73 c 0,6,7
 340 73 340 73 376 99 c 128,-1,8
 412 125 412 125 430 165.5 c 128,-1,9
 448 206 448 206 448 249 c 0,10,11
 448 306 448 306 415.5 336.5 c 128,-1,12
 383 367 383 367 333 367 c 0,13,14
 292 367 292 367 256.5 346 c 128,-1,15
 221 325 221 325 198 295 c 1,16,-1
 107 329 l 1,17,-1
 220 668 l 1,18,-1
 623 668 l 1,19,-1
 604 576 l 1,20,-1
 291 576 l 1,21,-1
 233 402 l 1,22,23
 291 452 291 452 368 452 c 0,24,25
 423 452 423 452 467 428 c 128,-1,26
 511 404 511 404 535.5 360 c 128,-1,27
 560 316 560 316 560 257 c 0,28,29
 560 180 560 180 525.5 119 c 128,-1,30
 491 58 491 58 428.5 23 c 128,-1,31
 366 -12 366 -12 287 -12 c 0,32,0
 195 -12 195 -12 137.5 32.5 c 128,-1,1
EndSplineSet
EndChar
StartChar: nine
Encoding: 57 57 238
Width: 632
GlyphClass: 1
Flags: W
LayerCount: 2
Fore
SplineSet
314 205 m 0,1,2
 260 205 260 205 212.5 232 c 128,-1,3
 165 259 165 259 136.5 306 c 128,-1,4
 108 353 108 353 108 412 c 0,5,6
 108 483 108 483 143.5 545 c 128,-1,7
 179 607 179 607 240 644 c 128,-1,8
 301 681 301 681 373 681 c 0,9,10
 437 681 437 681 487 652 c 128,-1,11
 537 623 537 623 564.5 574.5 c 128,-1,12
 592 526 592 526 592 467 c 0,13,14
 592 412 592 412 569 362 c 128,-1,15
 546 312 546 312 499 254 c 2,16,-1
 292 0 l 1,17,-1
 168 0 l 1,18,-1
 341 207 l 1,19,0
 323 205 323 205 314 205 c 0,1,2
414 319.5 m 128,-1,21
 450 341 450 341 471 377 c 128,-1,22
 492 413 492 413 492 455 c 0,23,24
 492 509 492 509 457 546 c 128,-1,25
 422 583 422 583 366 583 c 0,26,27
 324 583 324 583 287.5 561 c 128,-1,28
 251 539 251 539 229.5 502.5 c 128,-1,29
 208 466 208 466 208 423 c 0,30,31
 208 368 208 368 244 333 c 128,-1,32
 280 298 280 298 336 298 c 0,33,20
 378 298 378 298 414 319.5 c 128,-1,21
EndSplineSet
EndChar
StartChar: less
Encoding: 60 60 318
Width: 632
GlyphClass: 1
Flags: W
LayerCount: 2
Fore
SplineSet
68 211 m 1,0,-1
 84 287 l 1,1,-1
 609 500 l 1,2,-1
 585 387 l 1,3,-1
 201 242 l 1,4,-1
 523 97 l 1,5,-1
 502 -2 l 1,6,-1
 68 211 l 1,0,-1
EndSplineSet
EndChar
StartChar: greater
Encoding: 62 62 317
Width: 632
GlyphClass: 1
Flags: W
LayerCount: 2
Fore
SplineSet
47 110 m 1,0,-1
 432 255 l 1,1,-1
 109 400 l 1,2,-1
 130 500 l 1,3,-1
 564 287 l 1,4,-1
 548 211 l 1,5,-1
 23 -2 l 1,6,-1
 47 110 l 1,0,-1
EndSplineSet
EndChar
StartChar: at
Encoding: 64 64 288
Width: 632
GlyphClass: 1
Flags: W
LayerCount: 2
Fore
SplineSet
133.5 -60 m 128,-1,1
 73 -22 73 -22 41 44 c 128,-1,2
 9 110 9 110 9 192 c 0,3,4
 9 297 9 297 54 392.5 c 128,-1,5
 99 488 99 488 180.5 547 c 128,-1,6
 262 606 262 606 366 606 c 0,7,8
 452 606 452 606 512 570 c 128,-1,9
 572 534 572 534 602.5 473.5 c 128,-1,10
 633 413 633 413 633 340 c 0,11,12
 633 285 633 285 614 223 c 128,-1,13
 595 161 595 161 555.5 118 c 128,-1,14
 516 75 516 75 459 75 c 0,15,16
 432 75 432 75 408.5 90 c 128,-1,17
 385 105 385 105 375 132 c 1,18,19
 327 75 327 75 269 75 c 0,20,21
 214 75 214 75 184.5 114.5 c 128,-1,22
 155 154 155 154 155 211 c 0,23,24
 155 265 155 265 179 318 c 128,-1,25
 203 371 203 371 248.5 405 c 128,-1,26
 294 439 294 439 353 439 c 0,27,28
 382 439 382 439 416.5 430.5 c 128,-1,29
 451 422 451 422 482 407 c 1,30,-1
 441 214 l 2,31,32
 439 198 439 198 439 188 c 0,33,34
 439 139 439 139 476 139 c 0,35,36
 506 139 506 139 527 173 c 128,-1,37
 548 207 548 207 558.5 253.5 c 128,-1,38
 569 300 569 300 569 336 c 0,39,40
 569 428 569 428 516 487 c 128,-1,41
 463 546 463 546 360 546 c 0,42,43
 268 546 268 546 204 491 c 128,-1,44
 140 436 140 436 108 354.5 c 128,-1,45
 76 273 76 273 76 195 c 0,46,47
 76 93 76 93 130.5 28 c 128,-1,48
 185 -37 185 -37 285 -37 c 0,49,50
 337 -37 337 -37 386 -13 c 1,51,-1
 372 -82 l 1,52,53
 327 -98 327 -98 277 -98 c 0,54,0
 194 -98 194 -98 133.5 -60 c 128,-1,1
342 169 m 128,-1,56
 368 194 368 194 377 234 c 2,57,-1
 403 360 l 1,58,59
 376 371 376 371 349 371 c 0,60,61
 311 371 311 371 284 346.5 c 128,-1,62
 257 322 257 322 244 286 c 128,-1,63
 231 250 231 250 231 215 c 0,64,65
 231 183 231 183 245 163.5 c 128,-1,66
 259 144 259 144 288 144 c 0,67,55
 316 144 316 144 342 169 c 128,-1,56
EndSplineSet
EndChar
StartChar: D
Encoding: 68 68 19
Width: 632
GlyphClass: 2
Flags: W
AnchorPoint: "Anchor-1" 407 668 basechar 0
AnchorPoint: "Anchor-0" 269 0 basechar 0
LayerCount: 2
Fore
SplineSet
159 668 m 1,0,-1
 286 668 l 2,1,2
 446 668 446 668 531 600.5 c 128,-1,3
 616 533 616 533 616 397 c 0,4,5
 616 308 616 308 582 217 c 128,-1,6
 548 126 548 126 469 63 c 128,-1,7
 390 0 390 0 262 0 c 2,8,-1
 17 0 l 1,9,-1
 159 668 l 1,0,-1
404.5 138 m 128,-1,11
 459 183 459 183 483.5 252.5 c 128,-1,12
 508 322 508 322 508 397 c 0,13,14
 508 490 508 490 451 533 c 128,-1,15
 394 576 394 576 287 576 c 2,16,-1
 245 576 l 1,17,-1
 142 93 l 1,18,-1
 265 93 l 2,19,10
 350 93 350 93 404.5 138 c 128,-1,11
EndSplineSet
EndChar
StartChar: E
Encoding: 69 69 23
Width: 632
GlyphClass: 2
Flags: W
AnchorPoint: "Anchor-2" 500 10 basechar 0
AnchorPoint: "Anchor-1" 422 668 basechar 0
AnchorPoint: "Anchor-0" 264 0 basechar 0
LayerCount: 2
Fore
SplineSet
202 668 m 1,0,-1
 636 668 l 1,1,-1
 615 569 l 1,2,-1
 294 569 l 1,3,-1
 256 393 l 1,4,-1
 481 393 l 1,5,-1
 460 295 l 1,6,-1
 235 295 l 1,7,-1
 194 99 l 1,8,-1
 519 99 l 1,9,-1
 498 0 l 1,10,-1
 60 0 l 1,11,-1
 202 668 l 1,0,-1
EndSplineSet
EndChar
StartChar: F
Encoding: 70 70 32
Width: 632
GlyphClass: 2
Flags: W
AnchorPoint: "Anchor-1" 400 668 basechar 0
AnchorPoint: "Anchor-0" 258 0 basechar 0
LayerCount: 2
Fore
SplineSet
204 668 m 1,0,-1
 640 668 l 1,1,-1
 619 569 l 1,2,-1
 296 569 l 1,3,-1
 255 376 l 1,4,-1
 574 376 l 1,5,-1
 553 277 l 1,6,-1
 234 277 l 1,7,-1
 175 0 l 1,8,-1
 62 0 l 1,9,-1
 204 668 l 1,0,-1
EndSplineSet
EndChar
StartChar: G
Encoding: 71 71 33
Width: 632
GlyphClass: 2
Flags: W
AnchorPoint: "Anchor-1" 403 668 basechar 0
AnchorPoint: "Anchor-0" 279 0 basechar 0
LayerCount: 2
Fore
SplineSet
151 23.5 m 128,-1,1
 101 59 101 59 76 119.5 c 128,-1,2
 51 180 51 180 51 256 c 0,3,4
 51 350 51 350 88 448.5 c 128,-1,5
 125 547 125 547 201 613.5 c 128,-1,6
 277 680 277 680 386 680 c 0,7,8
 466 680 466 680 526.5 640 c 128,-1,9
 587 600 587 600 607 524 c 1,10,-1
 516 493 l 1,11,12
 502 541 502 541 465.5 565 c 128,-1,13
 429 589 429 589 382 589 c 0,14,15
 310 589 310 589 259.5 537 c 128,-1,16
 209 485 209 485 184.5 409.5 c 128,-1,17
 160 334 160 334 160 266 c 0,18,19
 160 184 160 184 196 132 c 128,-1,20
 232 80 232 80 305 80 c 0,21,22
 362 80 362 80 412 118.5 c 128,-1,23
 462 157 462 157 482 246 c 2,24,-1
 487 268 l 1,25,-1
 329 268 l 1,26,-1
 347 356 l 1,27,-1
 603 356 l 1,28,-1
 527 0 l 1,29,-1
 460 0 l 1,30,-1
 461 80 l 1,31,32
 423 32 423 32 373 10 c 128,-1,33
 323 -12 323 -12 274 -12 c 0,34,0
 201 -12 201 -12 151 23.5 c 128,-1,1
EndSplineSet
EndChar
StartChar: H
Encoding: 72 72 37
Width: 632
GlyphClass: 2
Flags: W
AnchorPoint: "Anchor-1" 405 668 basechar 0
AnchorPoint: "Anchor-0" 263 0 basechar 0
LayerCount: 2
Fore
SplineSet
147 668 m 1,0,-1
 260 668 l 1,1,-1
 202 394 l 1,2,-1
 492 394 l 1,3,-1
 550 668 l 1,4,-1
 663 668 l 1,5,-1
 521 0 l 1,6,-1
 408 0 l 1,7,-1
 471 295 l 1,8,-1
 181 295 l 1,9,-1
 118 0 l 1,10,-1
 5 0 l 1,11,-1
 147 668 l 1,0,-1
EndSplineSet
EndChar
StartChar: J
Encoding: 74 74 48
Width: 632
GlyphClass: 2
Flags: W
AnchorPoint: "Anchor-1" 567 668 basechar 0
AnchorPoint: "Anchor-0" 264 0 basechar 0
LayerCount: 2
Fore
SplineSet
98 37 m 128,-1,1
 33 86 33 86 32 185 c 1,2,-1
 141 220 l 1,3,4
 137 154 137 154 168.5 116.5 c 128,-1,5
 200 79 200 79 273 79 c 0,6,7
 385 79 385 79 414 212 c 2,8,-1
 511 668 l 1,9,-1
 624 668 l 1,10,-1
 524 199 l 2,11,12
 502 96 502 96 436.5 42 c 128,-1,13
 371 -12 371 -12 269 -12 c 0,14,0
 163 -12 163 -12 98 37 c 128,-1,1
EndSplineSet
Substitution2: "Single Substitution lookup 13 subtable" uni004A0301
AlternateSubs2: "'aalt' Access All Alternates in Latin lookup 0 subtable" uni004A0301
EndChar
StartChar: L
Encoding: 76 76 52
Width: 632
GlyphClass: 2
Flags: W
AnchorPoint: "Anchor-3" 343 459 basechar 0
AnchorPoint: "Anchor-1" 415 668 basechar 0
AnchorPoint: "Anchor-0" 290 0 basechar 0
LayerCount: 2
Fore
SplineSet
213 668 m 1,0,-1
 326 668 l 1,1,-1
 205 99 l 1,2,-1
 551 99 l 1,3,-1
 530 0 l 1,4,-1
 71 0 l 1,5,-1
 213 668 l 1,0,-1
EndSplineSet
EndChar
StartChar: M
Encoding: 77 77 56
Width: 632
GlyphClass: 2
Flags: W
AnchorPoint: "Anchor-1" 405 668 basechar 0
AnchorPoint: "Anchor-0" 263 0 basechar 0
LayerCount: 2
Fore
SplineSet
132 668 m 1,0,-1
 281 668 l 1,1,-1
 293 144 l 1,2,-1
 297 144 l 1,3,-1
 531 668 l 1,4,-1
 678 668 l 1,5,-1
 536 0 l 1,6,-1
 446 0 l 1,7,-1
 564 555 l 1,8,-1
 560 555 l 1,9,-1
 309 0 l 1,10,-1
 217 0 l 1,11,-1
 201 555 l 1,12,-1
 197 555 l 1,13,-1
 79 0 l 1,14,-1
 -10 0 l 1,15,-1
 132 668 l 1,0,-1
EndSplineSet
EndChar
StartChar: U
Encoding: 85 85 87
Width: 632
GlyphClass: 2
Flags: W
AnchorPoint: "Anchor-3" 725 668 basechar 0
AnchorPoint: "Anchor-1" 402 668 basechar 0
LayerCount: 2
Fore
SplineSet
124.5 36.5 m 128,-1,1
 64 85 64 85 64 185 c 0,2,3
 64 233 64 233 75 282 c 2,4,-1
 157 668 l 1,5,-1
 270 668 l 1,6,-1
 183 257 l 2,7,8
 175 220 175 220 175 195 c 0,9,10
 175 81 175 81 302 81 c 0,11,12
 363 81 363 81 397 118 c 128,-1,13
 431 155 431 155 447 228 c 2,14,-1
 540 668 l 1,15,-1
 653 668 l 1,16,-1
 561 230 l 2,17,18
 535 106 535 106 474 47 c 128,-1,19
 413 -12 413 -12 305 -12 c 0,20,0
 185 -12 185 -12 124.5 36.5 c 128,-1,1
EndSplineSet
EndChar
StartChar: X
Encoding: 88 88 102
Width: 632
GlyphClass: 2
Flags: W
AnchorPoint: "Anchor-1" 406 668 basechar 0
AnchorPoint: "Anchor-0" 264 0 basechar 0
LayerCount: 2
Fore
SplineSet
274 345 m 1,0,-1
 128 668 l 1,1,-1
 244 668 l 1,2,-1
 349 435 l 1,3,-1
 353 435 l 1,4,-1
 556 668 l 1,5,-1
 683 668 l 1,6,-1
 399 343 l 1,7,-1
 554 0 l 1,8,-1
 437 0 l 1,9,-1
 323 254 l 1,10,-1
 319 254 l 1,11,-1
 100 0 l 1,12,-1
 -27 0 l 1,13,-1
 274 345 l 1,0,-1
EndSplineSet
EndChar
StartChar: d
Encoding: 100 100 129
Width: 632
GlyphClass: 2
Flags: W
AnchorPoint: "Anchor-3" 627 497 basechar 0
AnchorPoint: "Anchor-1" 440 796 basechar 0
AnchorPoint: "Anchor-0" 271 0 basechar 0
LayerCount: 2
Fore
SplineSet
96 45.5 m 128,-1,1
 46 103 46 103 46 196 c 0,2,3
 46 277 46 277 78 349 c 128,-1,4
 110 421 110 421 171.5 465 c 128,-1,5
 233 509 233 509 316 509 c 0,6,7
 374 509 374 509 417 483.5 c 128,-1,8
 460 458 460 458 478 410 c 1,9,-1
 542 708 l 1,10,-1
 651 708 l 1,11,-1
 540 189 l 2,12,13
 519 90 519 90 517 0 c 1,14,-1
 413 0 l 1,15,-1
 408 72 l 1,16,17
 373 31 373 31 327 9.5 c 128,-1,18
 281 -12 281 -12 232 -12 c 0,19,0
 146 -12 146 -12 96 45.5 c 128,-1,1
373 110.5 m 128,-1,21
 413 145 413 145 432.5 196 c 128,-1,22
 452 247 452 247 452 296 c 0,23,24
 452 355 452 355 422 388.5 c 128,-1,25
 392 422 392 422 334 422 c 0,26,27
 274 422 274 422 234.5 387.5 c 128,-1,28
 195 353 195 353 177 303 c 128,-1,29
 159 253 159 253 159 208 c 0,30,31
 159 149 159 149 190 112.5 c 128,-1,32
 221 76 221 76 276 76 c 0,33,20
 333 76 333 76 373 110.5 c 128,-1,21
EndSplineSet
EndChar
StartChar: f
Encoding: 102 102 142
Width: 632
GlyphClass: 2
Flags: W
AnchorPoint: "Anchor-1" 413 796 basechar 0
AnchorPoint: "Anchor-0" 244 0 basechar 0
LayerCount: 2
Fore
SplineSet
277 412 m 1,0,-1
 132 412 l 1,1,-1
 149 496 l 1,2,-1
 294 496 l 1,3,-1
 316 596 l 2,4,5
 327 648 327 648 346 674 c 128,-1,6
 365 700 365 700 394 708.5 c 128,-1,7
 423 717 423 717 472 717 c 2,8,-1
 675 717 l 1,9,-1
 657 629 l 1,10,-1
 476 629 l 2,11,12
 449 629 449 629 438.5 619.5 c 128,-1,13
 428 610 428 610 421 577 c 2,14,-1
 404 496 l 1,15,-1
 536 496 l 1,16,-1
 519 412 l 1,17,-1
 386 412 l 1,18,-1
 299 0 l 1,19,-1
 189 0 l 1,20,-1
 277 412 l 1,0,-1
EndSplineSet
EndChar
StartChar: g
Encoding: 103 103 143
Width: 632
GlyphClass: 2
Flags: W
AnchorPoint: "Anchor-1" 370 496 basechar 0
AnchorPoint: "Anchor-0" 216 -251 basechar 0
LayerCount: 2
Fore
SplineSet
121.5 -166.5 m 128,-1,1
 59 -138 59 -138 40 -78 c 1,2,-1
 133 -44 l 1,3,4
 146 -78 146 -78 183.5 -93.5 c 128,-1,5
 221 -109 221 -109 264 -109 c 0,6,7
 312 -109 312 -109 346.5 -84.5 c 128,-1,8
 381 -60 381 -60 392 -8 c 2,9,-1
 413 86 l 1,10,11
 334 12 334 12 239 12 c 0,12,13
 181 12 181 12 139 39.5 c 128,-1,14
 97 67 97 67 75.5 114 c 128,-1,15
 54 161 54 161 54 218 c 0,16,17
 54 295 54 295 86.5 362 c 128,-1,18
 119 429 119 429 178.5 469 c 128,-1,19
 238 509 238 509 317 509 c 0,20,21
 370 509 370 509 415 484 c 128,-1,22
 460 459 460 459 480 414 c 1,23,-1
 516 496 l 1,24,-1
 608 496 l 1,25,-1
 502 -5 l 2,26,27
 482 -101 482 -101 419 -148 c 128,-1,28
 356 -195 356 -195 259 -195 c 0,29,0
 184 -195 184 -195 121.5 -166.5 c 128,-1,1
390.5 139.5 m 128,-1,31
 435 179 435 179 450 252 c 0,32,33
 455 273 455 273 455 301 c 0,34,35
 455 357 455 357 424.5 389.5 c 128,-1,36
 394 422 394 422 336 422 c 0,37,38
 281 422 281 422 242.5 393.5 c 128,-1,39
 204 365 204 365 185.5 320.5 c 128,-1,40
 167 276 167 276 167 228 c 0,41,42
 167 172 167 172 198 136 c 128,-1,43
 229 100 229 100 287 100 c 0,44,30
 346 100 346 100 390.5 139.5 c 128,-1,31
EndSplineSet
EndChar
StartChar: h
Encoding: 104 104 147
Width: 632
GlyphClass: 2
Flags: W
AnchorPoint: "Anchor-1" 432 796 basechar 0
AnchorPoint: "Anchor-0" 263 0 basechar 0
LayerCount: 2
Fore
SplineSet
193 708 m 1,0,-1
 303 708 l 1,1,-1
 243 426 l 1,2,3
 269 457 269 457 315 483 c 128,-1,4
 361 509 361 509 414 509 c 0,5,6
 489 509 489 509 525.5 471.5 c 128,-1,7
 562 434 562 434 562 368 c 0,8,9
 562 336 562 336 555 305 c 2,10,-1
 490 0 l 1,11,-1
 380 0 l 1,12,-1
 441 287 l 2,13,14
 447 316 447 316 447 339 c 0,15,16
 447 422 447 422 362 422 c 0,17,18
 309 422 309 422 266.5 378.5 c 128,-1,19
 224 335 224 335 208 261 c 2,20,-1
 153 0 l 1,21,-1
 43 0 l 1,22,-1
 193 708 l 1,0,-1
EndSplineSet
EndChar
StartChar: k
Encoding: 107 107 161
Width: 632
GlyphClass: 2
Flags: W
AnchorPoint: "Anchor-1" 443 796 basechar 0
AnchorPoint: "Anchor-0" 276 0 basechar 0
LayerCount: 2
Fore
SplineSet
209 708 m 1,0,-1
 319 708 l 1,1,-1
 227 275 l 1,2,-1
 489 496 l 1,3,-1
 629 496 l 1,4,-1
 375 288 l 1,5,-1
 546 0 l 1,6,-1
 424 0 l 1,7,-1
 295 221 l 1,8,-1
 198 141 l 1,9,-1
 169 0 l 1,10,-1
 59 0 l 1,11,-1
 209 708 l 1,0,-1
EndSplineSet
EndChar
StartChar: m
Encoding: 109 109 167
Width: 632
GlyphClass: 2
Flags: W
AnchorPoint: "Anchor-1" 368 496 basechar 0
AnchorPoint: "Anchor-0" 265 0 basechar 0
LayerCount: 2
Fore
SplineSet
110 496 m 1,0,-1
 186 496 l 1,1,-1
 186 446 l 1,2,3
 208 474 208 474 239 491.5 c 128,-1,4
 270 509 270 509 306 509 c 0,5,6
 380 509 380 509 393 447 c 1,7,8
 413 474 413 474 446 491.5 c 128,-1,9
 479 509 479 509 517 509 c 0,10,11
 564 509 564 509 587 485 c 128,-1,12
 610 461 610 461 610 418 c 0,13,14
 610 401 610 401 605 376 c 2,15,-1
 525 0 l 1,16,-1
 431 0 l 1,17,-1
 504 343 l 2,18,19
 508 360 508 360 508 377 c 0,20,21
 508 422 508 422 467 422 c 0,22,23
 437 422 437 422 413.5 396.5 c 128,-1,24
 390 371 390 371 380 323 c 2,25,-1
 311 0 l 1,26,-1
 218 0 l 1,27,-1
 291 343 l 2,28,29
 295 360 295 360 295 377 c 0,30,31
 295 422 295 422 255 422 c 0,32,33
 224 422 224 422 200 396 c 128,-1,34
 176 370 176 370 166 322 c 2,35,-1
 98 0 l 1,36,-1
 4 0 l 1,37,-1
 110 496 l 1,0,-1
EndSplineSet
EndChar
StartChar: q
Encoding: 113 113 184
Width: 632
GlyphClass: 2
Flags: W
AnchorPoint: "Anchor-1" 379 496 basechar 0
AnchorPoint: "Anchor-0" 273 0 basechar 0
LayerCount: 2
Fore
SplineSet
363 -76 m 0,1,2
 363 -57 363 -57 370 -22 c 2,3,-1
 390 70 l 1,4,5
 358 31 358 31 312.5 9.5 c 128,-1,6
 267 -12 267 -12 219 -12 c 0,7,8
 139 -12 139 -12 91.5 43.5 c 128,-1,9
 44 99 44 99 44 190 c 0,10,11
 44 268 44 268 74 341.5 c 128,-1,12
 104 415 104 415 163.5 462 c 128,-1,13
 223 509 223 509 306 509 c 0,14,15
 361 509 361 509 402 483.5 c 128,-1,16
 443 458 443 458 462 412 c 1,17,-1
 497 496 l 1,18,-1
 590 496 l 1,19,-1
 483 -8 l 2,20,21
 479 -25 479 -25 479 -41 c 0,22,23
 479 -80 479 -80 519 -80 c 0,24,25
 543 -80 543 -80 564 -70 c 1,26,-1
 545 -162 l 1,27,28
 516 -174 516 -174 479 -174 c 0,29,0
 363 -174 363 -174 363 -76 c 0,1,2
359.5 110.5 m 128,-1,31
 398 145 398 145 417.5 196.5 c 128,-1,32
 437 248 437 248 437 299 c 0,33,34
 437 356 437 356 408.5 389 c 128,-1,35
 380 422 380 422 327 422 c 0,36,37
 269 422 269 422 231 387 c 128,-1,38
 193 352 193 352 175 302 c 128,-1,39
 157 252 157 252 157 206 c 0,40,41
 157 149 157 149 186.5 112.5 c 128,-1,42
 216 76 216 76 268 76 c 0,43,30
 321 76 321 76 359.5 110.5 c 128,-1,31
EndSplineSet
EndChar
StartChar: s
Encoding: 115 115 188
Width: 632
GlyphClass: 2
Flags: W
AnchorPoint: "Anchor-1" 362 496 basechar 0
AnchorPoint: "Anchor-0" 290 0 basechar 0
LayerCount: 2
Fore
SplineSet
156 20 m 128,-1,1
 90 52 90 52 68 117 c 1,2,-1
 164 150 l 1,3,4
 174 109 174 109 215.5 90 c 128,-1,5
 257 71 257 71 308 71 c 0,6,7
 353 71 353 71 384 88.5 c 128,-1,8
 415 106 415 106 415 140 c 0,9,10
 415 163 415 163 395 177 c 128,-1,11
 375 191 375 191 331 205 c 2,12,-1
 252 230 l 2,13,14
 127 269 127 269 127 357 c 0,15,16
 127 405 127 405 156.5 439.5 c 128,-1,17
 186 474 186 474 234.5 491.5 c 128,-1,18
 283 509 283 509 338 509 c 0,19,20
 411 509 411 509 469 481.5 c 128,-1,21
 527 454 527 454 547 397 c 1,22,-1
 453 364 l 1,23,24
 443 397 443 397 407.5 412 c 128,-1,25
 372 427 372 427 329 427 c 0,26,27
 289 427 289 427 261 412 c 128,-1,28
 233 397 233 397 233 368 c 0,29,30
 233 349 233 349 250 335 c 128,-1,31
 267 321 267 321 299 311 c 2,32,-1
 381 285 l 2,33,34
 451 262 451 262 486 231.5 c 128,-1,35
 521 201 521 201 521 154 c 0,36,37
 521 103 521 103 492 65 c 128,-1,38
 463 27 463 27 413.5 7.5 c 128,-1,39
 364 -12 364 -12 305 -12 c 0,40,0
 222 -12 222 -12 156 20 c 128,-1,1
EndSplineSet
EndChar
StartChar: y
Encoding: 121 121 214
Width: 632
GlyphClass: 2
Flags: W
AnchorPoint: "Anchor-1" 360 496 basechar 0
AnchorPoint: "Anchor-0" 263 0 basechar 0
LayerCount: 2
Fore
SplineSet
17 -78 m 1,0,-1
 91 -78 l 2,1,2
 129 -78 129 -78 147 -69 c 128,-1,3
 165 -60 165 -60 182 -35 c 2,4,-1
 214 12 l 1,5,-1
 109 496 l 1,6,-1
 222 496 l 1,7,-1
 288 135 l 1,8,-1
 292 135 l 1,9,-1
 508 496 l 1,10,-1
 630 496 l 1,11,-1
 298 -19 l 2,12,13
 259 -81 259 -81 233 -109.5 c 128,-1,14
 207 -138 207 -138 174.5 -150 c 128,-1,15
 142 -162 142 -162 86 -162 c 2,16,-1
 -1 -162 l 1,17,-1
 17 -78 l 1,0,-1
EndSplineSet
EndChar
StartChar: braceleft
Encoding: 123 123 270
Width: 632
GlyphClass: 1
Flags: W
LayerCount: 2
Fore
SplineSet
186 -138 m 128,-1,1
 154 -114 154 -114 154 -67 c 0,2,3
 154 -44 154 -44 160 -17 c 2,4,-1
 192 134 l 2,5,6
 197 157 197 157 197 172 c 0,7,8
 197 201 197 201 179 215 c 128,-1,9
 161 229 161 229 120 231 c 1,10,-1
 138 316 l 1,11,12
 176 317 176 317 197.5 325.5 c 128,-1,13
 219 334 219 334 231 353.5 c 128,-1,14
 243 373 243 373 251 410 c 2,15,-1
 290 591 l 2,16,17
 304 658 304 658 335 683 c 128,-1,18
 366 708 366 708 434 708 c 2,19,-1
 583 708 l 1,20,-1
 565 623 l 1,21,-1
 443 623 l 2,22,23
 419 623 419 623 408.5 615.5 c 128,-1,24
 398 608 398 608 393 585 c 2,25,-1
 351 395 l 2,26,27
 338 336 338 336 313.5 309 c 128,-1,28
 289 282 289 282 243 274 c 1,29,-1
 241 268 l 1,30,31
 272 255 272 255 287 234.5 c 128,-1,32
 302 214 302 214 302 181 c 0,33,34
 302 159 302 159 296 130 c 2,35,-1
 262 -30 l 1,36,-1
 260 -46 l 2,37,38
 260 -62 260 -62 272 -69 c 128,-1,39
 284 -76 284 -76 311 -76 c 2,40,-1
 416 -76 l 1,41,-1
 399 -162 l 1,42,-1
 292 -162 l 2,43,0
 218 -162 218 -162 186 -138 c 128,-1,1
EndSplineSet
EndChar
StartChar: asciitilde
Encoding: 126 126 324
Width: 632
GlyphClass: 1
Flags: W
LayerCount: 2
Fore
SplineSet
128 298.5 m 128,-1,1
 164 336 164 336 222 336 c 0,2,3
 251 336 251 336 275 327 c 128,-1,4
 299 318 299 318 330 301 c 0,5,6
 359 286 359 286 375.5 279.5 c 128,-1,7
 392 273 392 273 411 273 c 0,8,9
 441 273 441 273 460 292 c 128,-1,10
 479 311 479 311 489 353 c 1,11,-1
 566 327 l 1,12,13
 525 182 525 182 416 182 c 0,14,15
 387 182 387 182 363 191 c 128,-1,16
 339 200 339 200 308 217 c 0,17,18
 279 232 279 232 262.5 238.5 c 128,-1,19
 246 245 246 245 227 245 c 0,20,21
 197 245 197 245 177.5 226 c 128,-1,22
 158 207 158 207 149 165 c 1,23,-1
 72 192 l 1,24,0
 92 261 92 261 128 298.5 c 128,-1,1
EndSplineSet
EndChar
StartChar: exclamdown
Encoding: 161 161 255
Width: 632
GlyphClass: 1
Flags: W
LayerCount: 2
Fore
SplineSet
207 2 m 1,0,-1
 290 287 l 1,1,-1
 361 287 l 1,2,-1
 323 2 l 1,3,-1
 286 -170 l 1,4,-1
 170 -170 l 1,5,-1
 207 2 l 1,0,-1
303 381 m 128,-1,7
 281 403 281 403 281 435 c 0,8,9
 281 466 281 466 303 488 c 128,-1,10
 325 510 325 510 356 510 c 256,11,12
 387 510 387 510 409.5 488 c 128,-1,13
 432 466 432 466 432 435 c 256,14,15
 432 404 432 404 410 381.5 c 128,-1,16
 388 359 388 359 356 359 c 0,17,6
 325 359 325 359 303 381 c 128,-1,7
EndSplineSet
EndChar
StartChar: cent
Encoding: 162 162 302
Width: 632
GlyphClass: 1
Flags: W
LayerCount: 2
Fore
SplineSet
141 63 m 128,-1,1
 100 117 100 117 100 199 c 0,2,3
 100 277 100 277 132.5 347 c 128,-1,4
 165 417 165 417 225 460.5 c 128,-1,5
 285 504 285 504 363 507 c 1,6,-1
 380 586 l 1,7,-1
 438 586 l 1,8,-1
 420 502 l 1,9,10
 470 493 470 493 507.5 464 c 128,-1,11
 545 435 545 435 565 385 c 1,12,-1
 472 355 l 1,13,14
 451 404 451 404 401 413 c 1,15,-1
 330 77 l 1,16,17
 398 80 398 80 436 135 c 1,18,-1
 529 98 l 1,19,20
 491 45 491 45 434.5 17.5 c 128,-1,21
 378 -10 378 -10 311 -12 c 1,22,-1
 294 -90 l 1,23,-1
 236 -90 l 1,24,-1
 254 -6 l 1,25,0
 182 9 182 9 141 63 c 128,-1,1
270 370.5 m 128,-1,27
 240 336 240 336 225.5 290.5 c 128,-1,28
 211 245 211 245 211 204 c 0,29,30
 211 161 211 161 227.5 130.5 c 128,-1,31
 244 100 244 100 274 87 c 1,32,-1
 344 414 l 1,33,26
 300 405 300 405 270 370.5 c 128,-1,27
EndSplineSet
EndChar
StartChar: currency
Encoding: 164 164 303
Width: 632
GlyphClass: 1
Flags: W
LayerCount: 2
Fore
SplineSet
92 122 m 1,0,-1
 158 188 l 1,1,2
 113 247 113 247 113 321 c 256,3,4
 113 395 113 395 158 453 c 1,5,-1
 92 519 l 1,6,-1
 134 560 l 1,7,-1
 200 494 l 1,8,9
 259 539 259 539 332 539 c 0,10,11
 403 539 403 539 464 494 c 1,12,-1
 530 560 l 1,13,-1
 571 519 l 1,14,-1
 505 453 l 1,15,16
 550 395 550 395 550 321 c 256,17,18
 550 247 550 247 505 188 c 1,19,-1
 571 122 l 1,20,-1
 530 82 l 1,21,-1
 464 147 l 1,22,23
 404 103 404 103 332 103 c 0,24,25
 258 103 258 103 200 147 c 1,26,-1
 134 82 l 1,27,-1
 92 122 l 1,0,-1
396 209.5 m 128,-1,29
 425 227 425 227 442 256.5 c 128,-1,30
 459 286 459 286 459 321 c 0,31,32
 459 374 459 374 422 411.5 c 128,-1,33
 385 449 385 449 332 449 c 256,34,35
 279 449 279 449 241.5 411.5 c 128,-1,36
 204 374 204 374 204 321 c 0,37,38
 204 286 204 286 221 256.5 c 128,-1,39
 238 227 238 227 267.5 209.5 c 128,-1,40
 297 192 297 192 332 192 c 256,41,28
 367 192 367 192 396 209.5 c 128,-1,29
EndSplineSet
EndChar
StartChar: yen
Encoding: 165 165 308
Width: 632
GlyphClass: 1
Flags: W
LayerCount: 2
Fore
SplineSet
224 83 m 1,0,-1
 81 83 l 1,1,-1
 93 141 l 1,2,-1
 237 141 l 1,3,-1
 253 220 l 1,4,-1
 110 220 l 1,5,-1
 122 278 l 1,6,-1
 254 278 l 1,7,-1
 118 668 l 1,8,-1
 246 668 l 1,9,-1
 338 370 l 1,10,-1
 342 370 l 1,11,-1
 562 668 l 1,12,-1
 693 668 l 1,13,-1
 390 278 l 1,14,-1
 523 278 l 1,15,-1
 511 220 l 1,16,-1
 367 220 l 1,17,-1
 351 141 l 1,18,-1
 494 141 l 1,19,-1
 482 83 l 1,20,-1
 338 83 l 1,21,-1
 321 0 l 1,22,-1
 207 0 l 1,23,-1
 224 83 l 1,0,-1
EndSplineSet
EndChar
StartChar: section
Encoding: 167 167 291
Width: 632
GlyphClass: 1
Flags: W
LayerCount: 2
Fore
SplineSet
124 -139 m 128,-1,1
 72 -105 72 -105 58 -38 c 1,2,-1
 157 -8 l 1,3,4
 162 -49 162 -49 189.5 -68 c 128,-1,5
 217 -87 217 -87 257 -87 c 0,6,7
 295 -87 295 -87 323 -69.5 c 128,-1,8
 351 -52 351 -52 351 -24 c 0,9,10
 351 -5 351 -5 335 13 c 128,-1,11
 319 31 319 31 276 62 c 2,12,-1
 186 125 l 2,13,14
 131 163 131 163 105.5 198 c 128,-1,15
 80 233 80 233 80 274 c 0,16,17
 80 328 80 328 117 368 c 128,-1,18
 154 408 154 408 217 434 c 1,19,20
 179 476 179 476 179 517 c 0,21,22
 179 566 179 566 207.5 603 c 128,-1,23
 236 640 236 640 283 660 c 128,-1,24
 330 680 330 680 386 680 c 0,25,26
 459 680 459 680 510.5 646 c 128,-1,27
 562 612 562 612 576 546 c 1,28,-1
 477 516 l 1,29,30
 472 557 472 557 444.5 576 c 128,-1,31
 417 595 417 595 377 595 c 0,32,33
 339 595 339 595 311.5 577 c 128,-1,34
 284 559 284 559 284 531 c 0,35,36
 284 512 284 512 300 493.5 c 128,-1,37
 316 475 316 475 359 445 c 2,38,-1
 449 382 l 2,39,40
 504 345 504 345 529.5 310 c 128,-1,41
 555 275 555 275 555 233 c 0,42,43
 555 132 555 132 418 73 c 1,44,45
 455 32 455 32 455 -10 c 0,46,47
 455 -59 455 -59 427 -96 c 128,-1,48
 399 -133 399 -133 352 -153 c 128,-1,49
 305 -173 305 -173 249 -173 c 0,50,0
 176 -173 176 -173 124 -139 c 128,-1,1
448 215 m 0,52,53
 448 238 448 238 432 258 c 128,-1,54
 416 278 416 278 382 301 c 2,55,-1
 278 375 l 1,56,57
 187 345 187 345 187 292 c 0,58,59
 187 269 187 269 202.5 249.5 c 128,-1,60
 218 230 218 230 252 206 c 2,61,-1
 357 133 l 1,62,51
 448 164 448 164 448 215 c 0,52,53
EndSplineSet
EndChar
StartChar: copyright
Encoding: 169 169 292
Width: 632
GlyphClass: 1
Flags: W
LayerCount: 2
Fore
SplineSet
180.5 33.5 m 128,-1,1
 113 80 113 80 75.5 159 c 128,-1,2
 38 238 38 238 38 334 c 0,3,4
 38 429 38 429 75.5 508 c 128,-1,5
 113 587 113 587 180.5 633.5 c 128,-1,6
 248 680 248 680 334 680 c 256,7,8
 420 680 420 680 487.5 633.5 c 128,-1,9
 555 587 555 587 592.5 508 c 128,-1,10
 630 429 630 429 630 334 c 0,11,12
 630 238 630 238 592.5 159 c 128,-1,13
 555 80 555 80 487.5 33.5 c 128,-1,14
 420 -13 420 -13 334 -13 c 256,15,0
 248 -13 248 -13 180.5 33.5 c 128,-1,1
222.5 194.5 m 128,-1,17
 181 246 181 246 181 335 c 0,18,19
 181 423 181 423 224.5 474.5 c 128,-1,20
 268 526 268 526 337 526 c 0,21,22
 381 526 381 526 415 503 c 128,-1,23
 449 480 449 480 467 438 c 1,24,-1
 401 410 l 1,25,26
 382 459 382 459 339 459 c 0,27,28
 305 459 305 459 282.5 427.5 c 128,-1,29
 260 396 260 396 260 335 c 256,30,31
 260 274 260 274 282.5 242.5 c 128,-1,32
 305 211 305 211 338 211 c 0,33,34
 362 211 362 211 377.5 221.5 c 128,-1,35
 393 232 393 232 403 254 c 1,36,-1
 468 227 l 1,37,38
 448 188 448 188 414 165.5 c 128,-1,39
 380 143 380 143 336 143 c 0,40,16
 264 143 264 143 222.5 194.5 c 128,-1,17
457.5 79.5 m 128,-1,42
 512 118 512 118 542.5 185 c 128,-1,43
 573 252 573 252 573 334 c 256,44,45
 573 416 573 416 542.5 483 c 128,-1,46
 512 550 512 550 457.5 588 c 128,-1,47
 403 626 403 626 334 626 c 256,48,49
 265 626 265 626 211 588 c 128,-1,50
 157 550 157 550 126.5 483 c 128,-1,51
 96 416 96 416 96 334 c 256,52,53
 96 252 96 252 126.5 185 c 128,-1,54
 157 118 157 118 211 79.5 c 128,-1,55
 265 41 265 41 334 41 c 256,56,41
 403 41 403 41 457.5 79.5 c 128,-1,42
EndSplineSet
EndChar
StartChar: registered
Encoding: 174 174 293
Width: 632
GlyphClass: 1
Flags: W
LayerCount: 2
Fore
SplineSet
180.5 33.5 m 128,-1,1
 113 80 113 80 75.5 159 c 128,-1,2
 38 238 38 238 38 334 c 0,3,4
 38 429 38 429 75.5 508 c 128,-1,5
 113 587 113 587 180.5 633.5 c 128,-1,6
 248 680 248 680 334 680 c 256,7,8
 420 680 420 680 487.5 633.5 c 128,-1,9
 555 587 555 587 592.5 508 c 128,-1,10
 630 429 630 429 630 334 c 0,11,12
 630 238 630 238 592.5 159 c 128,-1,13
 555 80 555 80 487.5 33.5 c 128,-1,14
 420 -13 420 -13 334 -13 c 256,15,0
 248 -13 248 -13 180.5 33.5 c 128,-1,1
457.5 79.5 m 128,-1,17
 512 118 512 118 542.5 185 c 128,-1,18
 573 252 573 252 573 334 c 256,19,20
 573 416 573 416 542.5 483 c 128,-1,21
 512 550 512 550 457.5 588 c 128,-1,22
 403 626 403 626 334 626 c 256,23,24
 265 626 265 626 211 588 c 128,-1,25
 157 550 157 550 126.5 483 c 128,-1,26
 96 416 96 416 96 334 c 256,27,28
 96 252 96 252 126.5 185 c 128,-1,29
 157 118 157 118 211 79.5 c 128,-1,30
 265 41 265 41 334 41 c 256,31,16
 403 41 403 41 457.5 79.5 c 128,-1,17
211 529 m 1,32,-1
 333 529 l 2,33,34
 396 529 396 529 431.5 501 c 128,-1,35
 467 473 467 473 467 416 c 0,36,37
 467 380 467 380 449 352 c 128,-1,38
 431 324 431 324 391 311 c 1,39,-1
 484 162 l 1,40,-1
 404 162 l 1,41,-1
 320 301 l 1,42,-1
 281 301 l 1,43,-1
 281 162 l 1,44,-1
 211 162 l 1,45,-1
 211 529 l 1,32,-1
393 416 m 0,47,48
 393 444 393 444 376 456 c 128,-1,49
 359 468 359 468 327 468 c 2,50,-1
 281 468 l 1,51,-1
 281 363 l 1,52,-1
 329 363 l 2,53,46
 393 363 393 363 393 416 c 0,47,48
EndSplineSet
EndChar
StartChar: degree
Encoding: 176 176 295
Width: 632
GlyphClass: 1
Flags: W
LayerCount: 2
Fore
SplineSet
305 410.5 m 128,-1,1
 272 430 272 430 252.5 463 c 128,-1,2
 233 496 233 496 233 535 c 256,3,4
 233 574 233 574 252.5 607.5 c 128,-1,5
 272 641 272 641 305 660.5 c 128,-1,6
 338 680 338 680 377 680 c 256,7,8
 416 680 416 680 449.5 660.5 c 128,-1,9
 483 641 483 641 502.5 607.5 c 128,-1,10
 522 574 522 574 522 535 c 256,11,12
 522 496 522 496 502.5 463 c 128,-1,13
 483 430 483 430 449.5 410.5 c 128,-1,14
 416 391 416 391 377 391 c 256,15,0
 338 391 338 391 305 410.5 c 128,-1,1
431 481.5 m 128,-1,17
 453 504 453 504 453 535 c 0,18,19
 453 567 453 567 431 589 c 128,-1,20
 409 611 409 611 377 611 c 0,21,22
 346 611 346 611 323.5 589 c 128,-1,23
 301 567 301 567 301 535 c 0,24,25
 301 504 301 504 323.5 481.5 c 128,-1,26
 346 459 346 459 377 459 c 0,27,16
 409 459 409 459 431 481.5 c 128,-1,17
EndSplineSet
EndChar
StartChar: uni00B2
Encoding: 178 178 245
Width: 632
GlyphClass: 1
Flags: W
LayerCount: 2
Fore
SplineSet
353 531 m 128,-1,1
 405 569 405 569 438.5 606.5 c 128,-1,2
 472 644 472 644 472 678 c 0,3,4
 472 701 472 701 456.5 713.5 c 128,-1,5
 441 726 441 726 413 726 c 256,6,7
 385 726 385 726 365.5 711 c 128,-1,8
 346 696 346 696 337 665 c 1,9,-1
 266 688 l 1,10,11
 283 735 283 735 322 760.5 c 128,-1,12
 361 786 361 786 417 786 c 0,13,14
 477 786 477 786 514.5 758.5 c 128,-1,15
 552 731 552 731 552 684 c 0,16,17
 552 632 552 632 512.5 584.5 c 128,-1,18
 473 537 473 537 425.5 504.5 c 128,-1,19
 378 472 378 472 309 431 c 1,20,-1
 509 431 l 1,21,-1
 495 364 l 1,22,-1
 188 364 l 1,23,-1
 202 428 l 1,24,0
 301 493 301 493 353 531 c 128,-1,1
EndSplineSet
EndChar
StartChar: uni00B3
Encoding: 179 179 246
Width: 632
GlyphClass: 1
Flags: W
LayerCount: 2
Fore
SplineSet
258 384 m 128,-1,1
 220 411 220 411 211 456 c 1,2,-1
 285 477 l 1,3,4
 295 418 295 418 361 418 c 0,5,6
 399 418 399 418 420 440 c 128,-1,7
 441 462 441 462 441 492 c 0,8,9
 441 548 441 548 337 548 c 1,10,-1
 350 612 l 1,11,12
 359 611 359 611 377 611 c 0,13,14
 419 611 419 611 445 626 c 128,-1,15
 471 641 471 641 471 675 c 0,16,17
 471 698 471 698 452.5 712 c 128,-1,18
 434 726 434 726 404 726 c 0,19,20
 349 726 349 726 325 673 c 1,21,-1
 256 695 l 1,22,23
 275 737 275 737 316 761.5 c 128,-1,24
 357 786 357 786 408 786 c 0,25,26
 468 786 468 786 509.5 757 c 128,-1,27
 551 728 551 728 551 681 c 0,28,29
 551 646 551 646 529 616.5 c 128,-1,30
 507 587 507 587 470 574 c 1,31,32
 495 561 495 561 508 539.5 c 128,-1,33
 521 518 521 518 521 492 c 0,34,35
 521 432 521 432 475 394.5 c 128,-1,36
 429 357 429 357 362 357 c 0,37,0
 296 357 296 357 258 384 c 128,-1,1
EndSplineSet
EndChar
StartChar: paragraph
Encoding: 182 182 290
Width: 632
GlyphClass: 1
Flags: W
LayerCount: 2
Fore
SplineSet
168.5 361 m 128,-1,1
 133 405 133 405 133 462 c 0,2,3
 133 484 133 484 137 501 c 0,4,5
 153 578 153 578 217 623 c 128,-1,6
 281 668 281 668 371 668 c 2,7,-1
 645 668 l 1,8,-1
 633 611 l 1,9,-1
 591 611 l 1,10,-1
 427 -162 l 1,11,-1
 351 -162 l 1,12,-1
 515 611 l 1,13,-1
 412 611 l 1,14,-1
 248 -162 l 1,15,-1
 173 -162 l 1,16,-1
 271 299 l 1,17,0
 204 317 204 317 168.5 361 c 128,-1,1
EndSplineSet
EndChar
StartChar: onequarter
Encoding: 188 188 242
Width: 632
GlyphClass: 3
Flags: W
LayerCount: 2
Fore
SplineSet
191 569 m 1,0,-1
 122 569 l 1,1,-1
 136 631 l 1,2,3
 174 630 174 630 195.5 638.5 c 128,-1,4
 217 647 217 647 228 668 c 1,5,-1
 287 668 l 1,6,-1
 222 361 l 1,7,-1
 147 361 l 1,8,-1
 191 569 l 1,0,-1
532 668 m 1,9,-1
 626 668 l 1,10,-1
 128 0 l 1,11,-1
 34 0 l 1,12,-1
 532 668 l 1,9,-1
442 61 m 1,13,-1
 286 61 l 1,14,-1
 299 123 l 1,15,-1
 487 308 l 1,16,-1
 564 308 l 1,17,-1
 526 125 l 1,18,-1
 573 125 l 1,19,-1
 559 61 l 1,20,-1
 512 61 l 1,21,-1
 499 0 l 1,22,-1
 429 0 l 1,23,-1
 442 61 l 1,13,-1
456 125 m 1,24,-1
 476 219 l 1,25,-1
 474 219 l 1,26,-1
 380 125 l 1,27,-1
 456 125 l 1,24,-1
EndSplineSet
Ligature2: "'frac' Diagonal Fractions in Latin lookup 7 subtable" one slash four
EndChar
StartChar: onehalf
Encoding: 189 189 241
Width: 632
GlyphClass: 3
Flags: W
LayerCount: 2
Fore
SplineSet
164 569 m 1,0,-1
 95 569 l 1,1,-1
 109 631 l 1,2,3
 147 630 147 630 168.5 638.5 c 128,-1,4
 190 647 190 647 201 668 c 1,5,-1
 260 668 l 1,6,-1
 195 361 l 1,7,-1
 120 361 l 1,8,-1
 164 569 l 1,0,-1
505 668 m 1,9,-1
 599 668 l 1,10,-1
 101 0 l 1,11,-1
 7 0 l 1,12,-1
 505 668 l 1,9,-1
462 148.5 m 128,-1,14
 513 186 513 186 513 222 c 0,15,16
 513 254 513 254 476 254 c 0,17,18
 457 254 457 254 444 244 c 128,-1,19
 431 234 431 234 426 217 c 1,20,-1
 360 238 l 1,21,22
 380 275 380 275 410 293 c 128,-1,23
 440 311 440 311 484 311 c 0,24,25
 529 311 529 311 559.5 290 c 128,-1,26
 590 269 590 269 590 232 c 0,27,28
 590 184 590 184 547.5 144 c 128,-1,29
 505 104 505 104 439 66 c 1,30,-1
 559 66 l 1,31,-1
 545 0 l 1,32,-1
 305 0 l 1,33,-1
 317 60 l 1,34,13
 411 111 411 111 462 148.5 c 128,-1,14
EndSplineSet
Ligature2: "'frac' Diagonal Fractions in Latin lookup 7 subtable" one slash two
EndChar
StartChar: questiondown
Encoding: 191 191 257
Width: 632
GlyphClass: 1
Flags: W
LayerCount: 2
Fore
SplineSet
143.5 -163.5 m 128,-1,1
 93 -145 93 -145 61 -108.5 c 128,-1,2
 29 -72 29 -72 29 -21 c 0,3,4
 29 48 29 48 72 93 c 128,-1,5
 115 138 115 138 197 176 c 0,6,7
 251 201 251 201 271 220 c 128,-1,8
 291 239 291 239 297 269 c 2,9,-1
 303 297 l 1,10,-1
 413 297 l 1,11,-1
 406 268 l 2,12,13
 392 204 392 204 360.5 169 c 128,-1,14
 329 134 329 134 259 102 c 0,15,16
 203 77 203 77 172.5 50 c 128,-1,17
 142 23 142 23 142 -13 c 0,18,19
 142 -47 142 -47 175 -69.5 c 128,-1,20
 208 -92 208 -92 257 -92 c 256,21,22
 306 -92 306 -92 343 -65 c 128,-1,23
 380 -38 380 -38 394 3 c 1,24,-1
 495 -31 l 1,25,26
 468 -104 468 -104 402.5 -143 c 128,-1,27
 337 -182 337 -182 248 -182 c 0,28,0
 194 -182 194 -182 143.5 -163.5 c 128,-1,1
332 382 m 128,-1,30
 310 404 310 404 310 435 c 256,31,32
 310 466 310 466 332 488 c 128,-1,33
 354 510 354 510 385 510 c 256,34,35
 416 510 416 510 438.5 488 c 128,-1,36
 461 466 461 466 461 435 c 256,37,38
 461 404 461 404 439 382 c 128,-1,39
 417 360 417 360 385 360 c 0,40,29
 354 360 354 360 332 382 c 128,-1,30
EndSplineSet
EndChar
StartChar: Aring
Encoding: 197 197 10
Width: 632
GlyphClass: 2
Flags: W
AnchorPoint: "Anchor-2" 548 10 basechar 0
AnchorPoint: "Anchor-1" 435 850 basechar 0
AnchorPoint: "Anchor-0" 263 0 basechar 0
LayerCount: 2
Fore
SplineSet
306 686.5 m 128,-1,1
 295 709 295 709 295 735 c 0,2,3
 295 783 295 783 329 816.5 c 128,-1,4
 363 850 363 850 410 850 c 0,5,6
 458 850 458 850 492.5 816.5 c 128,-1,7
 527 783 527 783 527 735 c 0,8,9
 527 704 527 704 511 677.5 c 128,-1,10
 495 651 495 651 469 637 c 1,11,-1
 546 0 l 1,12,-1
 444 0 l 1,13,-1
 428 141 l 1,14,-1
 163 141 l 1,15,-1
 87 0 l 1,16,-1
 -20 0 l 1,17,-1
 336 650 l 1,18,0
 317 664 317 664 306 686.5 c 128,-1,1
421 234 m 1,19,-1
 385 552 l 1,20,-1
 381 552 l 1,21,-1
 209 234 l 1,22,-1
 421 234 l 1,19,-1
446.5 698.5 m 128,-1,24
 461 713 461 713 461 734 c 256,25,26
 461 755 461 755 446.5 770 c 128,-1,27
 432 785 432 785 411 785 c 256,28,29
 390 785 390 785 375 770 c 128,-1,30
 360 755 360 755 360 734 c 256,31,32
 360 713 360 713 375 698.5 c 128,-1,33
 390 684 390 684 411 684 c 256,34,23
 432 684 432 684 446.5 698.5 c 128,-1,24
EndSplineSet
EndChar
StartChar: AE
Encoding: 198 198 12
Width: 632
GlyphClass: 2
Flags: W
AnchorPoint: "Anchor-1" 421 668 basechar 0
AnchorPoint: "Anchor-0" 279 0 basechar 0
LayerCount: 2
Fore
SplineSet
333 668 m 1,0,-1
 711 668 l 1,1,-1
 692 579 l 1,2,-1
 471 579 l 1,3,-1
 431 388 l 1,4,-1
 580 388 l 1,5,-1
 561 300 l 1,6,-1
 412 300 l 1,7,-1
 367 89 l 1,8,-1
 590 89 l 1,9,-1
 571 0 l 1,10,-1
 255 0 l 1,11,-1
 286 146 l 1,12,-1
 135 146 l 1,13,-1
 53 0 l 1,14,-1
 -48 0 l 1,15,-1
 333 668 l 1,0,-1
304 229 m 1,16,-1
 377 576 l 1,17,-1
 373 576 l 1,18,-1
 179 229 l 1,19,-1
 304 229 l 1,16,-1
EndSplineSet
EndChar
StartChar: Ccedilla
Encoding: 199 199 17
Width: 632
GlyphClass: 2
Flags: W
AnchorPoint: "Anchor-1" 427 668 basechar 0
LayerCount: 2
Fore
SplineSet
185 -157 m 1,1,-1
 207 -120 l 1,2,3
 236 -140 236 -140 273 -140 c 0,4,5
 291 -140 291 -140 303.5 -131 c 128,-1,6
 316 -122 316 -122 316 -107 c 0,7,8
 316 -95 316 -95 306 -88 c 128,-1,9
 296 -81 296 -81 280 -81 c 2,10,-1
 251 -83 l 2,11,12
 243 -83 243 -83 238.5 -79 c 128,-1,13
 234 -75 234 -75 234 -69 c 256,14,15
 234 -63 234 -63 241 -52 c 2,16,-1
 276 -10 l 1,17,18
 172 2 172 2 119 75 c 128,-1,19
 66 148 66 148 66 260 c 0,20,21
 66 356 66 356 104.5 453.5 c 128,-1,22
 143 551 143 551 219.5 615.5 c 128,-1,23
 296 680 296 680 403 680 c 0,24,25
 485 680 485 680 543 638.5 c 128,-1,26
 601 597 601 597 623 522 c 1,27,-1
 531 490 l 1,28,29
 517 536 517 536 483 562.5 c 128,-1,30
 449 589 449 589 401 589 c 0,31,32
 328 589 328 589 277.5 536.5 c 128,-1,33
 227 484 227 484 202 408.5 c 128,-1,34
 177 333 177 333 177 266 c 0,35,36
 177 184 177 184 214 132 c 128,-1,37
 251 80 251 80 326 80 c 0,38,39
 371 80 371 80 410 103.5 c 128,-1,40
 449 127 449 127 479 174 c 1,41,-1
 568 137 l 1,42,43
 523 66 523 66 460 28.5 c 128,-1,44
 397 -9 397 -9 323 -12 c 1,45,-1
 293 -47 l 1,46,47
 299 -45 299 -45 311 -45 c 0,48,49
 343 -45 343 -45 365.5 -60.5 c 128,-1,50
 388 -76 388 -76 388 -102 c 0,51,52
 388 -140 388 -140 357.5 -161 c 128,-1,53
 327 -182 327 -182 281 -182 c 0,54,0
 227 -182 227 -182 185 -157 c 1,1,-1
EndSplineSet
EndChar
StartChar: Eth
Encoding: 208 208 22
Width: 632
GlyphClass: 1
Flags: W
LayerCount: 2
Fore
SplineSet
81 301 m 1,0,-1
 31 301 l 1,1,-1
 51 394 l 1,2,-1
 101 394 l 1,3,-1
 159 668 l 1,4,-1
 286 668 l 2,5,6
 446 668 446 668 531 600.5 c 128,-1,7
 616 533 616 533 616 397 c 0,8,9
 616 308 616 308 582 217 c 128,-1,10
 548 126 548 126 469 63 c 128,-1,11
 390 0 390 0 262 0 c 2,12,-1
 17 0 l 1,13,-1
 81 301 l 1,0,-1
404.5 138 m 128,-1,15
 459 183 459 183 483.5 252.5 c 128,-1,16
 508 322 508 322 508 397 c 0,17,18
 508 490 508 490 451 533 c 128,-1,19
 394 576 394 576 287 576 c 2,20,-1
 245 576 l 1,21,-1
 206 394 l 1,22,-1
 355 394 l 1,23,-1
 335 301 l 1,24,-1
 186 301 l 1,25,-1
 142 93 l 1,26,-1
 265 93 l 2,27,14
 350 93 350 93 404.5 138 c 128,-1,15
EndSplineSet
EndChar
StartChar: multiply
Encoding: 215 215 313
Width: 632
GlyphClass: 1
Flags: W
LayerCount: 2
Fore
SplineSet
69 103 m 1,0,-1
 252 254 l 1,1,-1
 131 405 l 1,2,-1
 205 465 l 1,3,-1
 324 312 l 1,4,-1
 509 465 l 1,5,-1
 566 394 l 1,6,-1
 381 243 l 1,7,-1
 500 91 l 1,8,-1
 426 32 l 1,9,-1
 309 183 l 1,10,-1
 126 32 l 1,11,-1
 69 103 l 1,0,-1
EndSplineSet
EndChar
StartChar: Thorn
Encoding: 222 222 72
Width: 632
GlyphClass: 2
Flags: W
AnchorPoint: "Anchor-1" 401 668 basechar 0
AnchorPoint: "Anchor-0" 259 0 basechar 0
LayerCount: 2
Fore
SplineSet
182 668 m 1,0,-1
 287 668 l 1,1,-1
 262 548 l 1,2,-1
 372 548 l 2,3,4
 479 548 479 548 542 499.5 c 128,-1,5
 605 451 605 451 605 366 c 0,6,7
 605 297 605 297 574.5 244.5 c 128,-1,8
 544 192 544 192 487 163 c 128,-1,9
 430 134 430 134 354 134 c 2,10,-1
 173 134 l 1,11,-1
 145 0 l 1,12,-1
 40 0 l 1,13,-1
 182 668 l 1,0,-1
460 260.5 m 128,-1,15
 496 296 496 296 496 356 c 0,16,17
 496 405 496 405 460.5 431 c 128,-1,18
 425 457 425 457 363 457 c 2,19,-1
 242 457 l 1,20,-1
 193 225 l 1,21,-1
 355 225 l 2,22,14
 424 225 424 225 460 260.5 c 128,-1,15
EndSplineSet
EndChar
StartChar: divide
Encoding: 247 247 314
Width: 632
GlyphClass: 1
Flags: W
LayerCount: 2
Fore
SplineSet
73 295 m 1,0,-1
 579 295 l 1,1,-1
 559 201 l 1,2,-1
 53 201 l 1,3,-1
 73 295 l 1,0,-1
230 26.5 m 128,-1,5
 210 47 210 47 210 76 c 0,6,7
 210 104 210 104 230.5 124.5 c 128,-1,8
 251 145 251 145 279 145 c 0,9,10
 308 145 308 145 328 124.5 c 128,-1,11
 348 104 348 104 348 76 c 0,12,13
 348 47 348 47 328 26.5 c 128,-1,14
 308 6 308 6 279 6 c 256,15,4
 250 6 250 6 230 26.5 c 128,-1,5
304.5 372.5 m 128,-1,17
 284 393 284 393 284 421 c 0,18,19
 284 450 284 450 304 470.5 c 128,-1,20
 324 491 324 491 353 491 c 256,21,22
 382 491 382 491 402 470.5 c 128,-1,23
 422 450 422 450 422 421 c 256,24,25
 422 392 422 392 402 372 c 128,-1,26
 382 352 382 352 353 352 c 0,27,16
 325 352 325 352 304.5 372.5 c 128,-1,17
EndSplineSet
EndChar
StartChar: Aogonek
Encoding: 260 260 9
Width: 632
GlyphClass: 2
Flags: W
AnchorPoint: "Anchor-1" 405 668 basechar 0
LayerCount: 2
Fore
SplineSet
346 668 m 1,0,-1
 465 668 l 1,1,-1
 546 0 l 1,2,3
 508 -7 508 -7 473.5 -30 c 128,-1,4
 439 -53 439 -53 439 -79 c 0,5,6
 439 -111 439 -111 487 -111 c 0,7,8
 495 -111 495 -111 523 -107 c 1,9,-1
 510 -167 l 1,10,11
 495 -172 495 -172 473 -172 c 0,12,13
 422 -172 422 -172 383 -152.5 c 128,-1,14
 344 -133 344 -133 344 -96 c 0,15,16
 344 -61 344 -61 372.5 -35.5 c 128,-1,17
 401 -10 401 -10 443 7 c 1,18,-1
 428 141 l 1,19,-1
 163 141 l 1,20,-1
 87 0 l 1,21,-1
 -20 0 l 1,22,-1
 346 668 l 1,0,-1
421 234 m 1,23,-1
 385 552 l 1,24,-1
 381 552 l 1,25,-1
 209 234 l 1,26,-1
 421 234 l 1,23,-1
EndSplineSet
EndChar
StartChar: aogonek
Encoding: 261 261 119
Width: 632
GlyphClass: 2
Flags: W
AnchorPoint: "Anchor-1" 366 496 basechar 0
LayerCount: 2
Fore
SplineSet
323 -152.5 m 128,-1,1
 286 -133 286 -133 286 -97 c 256,2,3
 286 -61 286 -61 315.5 -34.5 c 128,-1,4
 345 -8 345 -8 390 11 c 1,5,-1
 387 64 l 1,6,7
 357 28 357 28 312 8 c 128,-1,8
 267 -12 267 -12 215 -12 c 0,9,10
 144 -12 144 -12 96 22.5 c 128,-1,11
 48 57 48 57 48 117 c 0,12,13
 48 212 48 212 140 258 c 128,-1,14
 232 304 232 304 432 312 c 1,15,-1
 433 317 l 2,16,17
 436 332 436 332 436 346 c 0,18,19
 436 385 436 385 410.5 408.5 c 128,-1,20
 385 432 385 432 333 432 c 0,21,22
 291 432 291 432 260 412 c 128,-1,23
 229 392 229 392 218 360 c 1,24,-1
 122 393 l 1,25,26
 151 448 151 448 207 478.5 c 128,-1,27
 263 509 263 509 336 509 c 0,28,29
 432 509 432 509 485.5 469.5 c 128,-1,30
 539 430 539 430 539 352 c 0,31,32
 539 322 539 322 532 291 c 2,33,-1
 510 190 l 2,34,35
 485 67 485 67 488 0 c 1,36,37
 444 -9 444 -9 412 -31 c 128,-1,38
 380 -53 380 -53 380 -80 c 0,39,40
 380 -111 380 -111 429 -111 c 0,41,42
 447 -111 447 -111 465 -107 c 1,43,-1
 452 -168 l 1,44,45
 435 -172 435 -172 412 -172 c 0,46,0
 360 -172 360 -172 323 -152.5 c 128,-1,1
349.5 98.5 m 128,-1,48
 393 132 393 132 406 192 c 2,49,-1
 417 242 l 1,50,51
 277 236 277 236 219 207 c 128,-1,52
 161 178 161 178 161 131 c 0,53,54
 161 101 161 101 186 83 c 128,-1,55
 211 65 211 65 251 65 c 0,56,47
 306 65 306 65 349.5 98.5 c 128,-1,48
EndSplineSet
EndChar
StartChar: dcaron
Encoding: 271 271 130
Width: 632
GlyphClass: 1
Flags: W
LayerCount: 2
Fore
SplineSet
65.5 45 m 128,-1,1
 22 102 22 102 22 190 c 0,2,3
 22 268 22 268 51 341.5 c 128,-1,4
 80 415 80 415 137 462 c 128,-1,5
 194 509 194 509 274 509 c 0,6,7
 321 509 321 509 358.5 485.5 c 128,-1,8
 396 462 396 462 414 418 c 1,9,-1
 474 708 l 1,10,-1
 581 708 l 1,11,-1
 471 189 l 2,12,13
 449 85 449 85 447 0 c 1,14,-1
 345 0 l 1,15,-1
 341 62 l 1,16,17
 308 27 308 27 268.5 7.5 c 128,-1,18
 229 -12 229 -12 188 -12 c 0,19,0
 109 -12 109 -12 65.5 45 c 128,-1,1
316 114.5 m 128,-1,21
 351 153 351 153 368.5 206.5 c 128,-1,22
 386 260 386 260 386 305 c 0,23,24
 386 359 386 359 362 390.5 c 128,-1,25
 338 422 338 422 288 422 c 0,26,27
 236 422 236 422 201 387 c 128,-1,28
 166 352 166 352 149 301 c 128,-1,29
 132 250 132 250 132 202 c 0,30,31
 132 146 132 146 157 111 c 128,-1,32
 182 76 182 76 230 76 c 0,33,20
 281 76 281 76 316 114.5 c 128,-1,21
681 719 m 0,35,36
 694 719 694 719 702.5 712.5 c 128,-1,37
 711 706 711 706 711 694 c 0,38,39
 711 673 711 673 686 630 c 2,40,-1
 630 533 l 1,41,-1
 580 533 l 1,42,-1
 628 665 l 2,43,34
 648 719 648 719 681 719 c 0,35,36
EndSplineSet
EndChar
StartChar: Eogonek
Encoding: 280 280 31
Width: 632
GlyphClass: 2
Flags: W
AnchorPoint: "Anchor-1" 286 668 basechar 0
LayerCount: 2
Fore
SplineSet
202 668 m 1,0,-1
 636 668 l 1,1,-1
 615 569 l 1,2,-1
 294 569 l 1,3,-1
 256 393 l 1,4,-1
 481 393 l 1,5,-1
 460 295 l 1,6,-1
 235 295 l 1,7,-1
 194 99 l 1,8,-1
 519 99 l 1,9,-1
 498 0 l 1,10,11
 460 -7 460 -7 425.5 -30 c 128,-1,12
 391 -53 391 -53 391 -79 c 0,13,14
 391 -111 391 -111 439 -111 c 0,15,16
 447 -111 447 -111 475 -107 c 1,17,-1
 462 -167 l 1,18,19
 447 -172 447 -172 425 -172 c 0,20,21
 374 -172 374 -172 335 -152.5 c 128,-1,22
 296 -133 296 -133 296 -96 c 0,23,24
 296 -40 296 -40 379 0 c 1,25,-1
 60 0 l 1,26,-1
 202 668 l 1,0,-1
EndSplineSet
EndChar
StartChar: eogonek
Encoding: 281 281 141
Width: 632
GlyphClass: 2
Flags: W
AnchorPoint: "Anchor-1" 261 496 basechar 0
LayerCount: 2
Fore
SplineSet
285.5 -158.5 m 128,-1,1
 249 -139 249 -139 249 -101 c 0,2,3
 249 -76 249 -76 263 -52.5 c 128,-1,4
 277 -29 277 -29 301 -10 c 1,5,6
 198 -9 198 -9 133.5 47.5 c 128,-1,7
 69 104 69 104 69 207 c 0,8,9
 69 288 69 288 105 357.5 c 128,-1,10
 141 427 141 427 206 468 c 128,-1,11
 271 509 271 509 352 509 c 0,12,13
 422 509 422 509 471.5 481 c 128,-1,14
 521 453 521 453 546.5 404 c 128,-1,15
 572 355 572 355 572 293 c 0,16,17
 572 257 572 257 565 225 c 1,18,-1
 175 225 l 1,19,20
 172 153 172 153 209 114 c 128,-1,21
 246 75 246 75 318 75 c 0,22,23
 386 75 386 75 427 122 c 1,24,-1
 516 86 l 1,25,26
 480 42 480 42 417 9 c 0,27,28
 386 -6 386 -6 364.5 -31 c 128,-1,29
 343 -56 343 -56 343 -81 c 0,30,31
 343 -99 343 -99 356.5 -108.5 c 128,-1,32
 370 -118 370 -118 393 -118 c 0,33,34
 411 -118 411 -118 427 -114 c 1,35,-1
 414 -175 l 1,36,37
 399 -178 399 -178 379 -178 c 0,38,0
 322 -178 322 -178 285.5 -158.5 c 128,-1,1
443.5 387 m 128,-1,40
 409 424 409 424 347 424 c 256,41,42
 285 424 285 424 244.5 388 c 128,-1,43
 204 352 204 352 186 295 c 1,44,-1
 474 295 l 1,45,39
 478 350 478 350 443.5 387 c 128,-1,40
EndSplineSet
EndChar
StartChar: Hbar
Encoding: 294 294 38
Width: 632
GlyphClass: 1
Flags: W
LayerCount: 2
Fore
SplineSet
113 508 m 1,0,-1
 63 508 l 1,1,-1
 78 579 l 1,2,-1
 128 579 l 1,3,-1
 147 668 l 1,4,-1
 260 668 l 1,5,-1
 241 579 l 1,6,-1
 531 579 l 1,7,-1
 550 668 l 1,8,-1
 663 668 l 1,9,-1
 644 579 l 1,10,-1
 694 579 l 1,11,-1
 679 508 l 1,12,-1
 629 508 l 1,13,-1
 521 0 l 1,14,-1
 408 0 l 1,15,-1
 471 295 l 1,16,-1
 181 295 l 1,17,-1
 118 0 l 1,18,-1
 5 0 l 1,19,-1
 113 508 l 1,0,-1
492 394 m 1,20,-1
 516 508 l 1,21,-1
 226 508 l 1,22,-1
 202 394 l 1,23,-1
 492 394 l 1,20,-1
EndSplineSet
EndChar
StartChar: Iogonek
Encoding: 302 302 47
Width: 632
GlyphClass: 2
Flags: W
AnchorPoint: "Anchor-1" 405 668 basechar 0
LayerCount: 2
Fore
SplineSet
91 83 m 1,0,-1
 224 83 l 1,1,-1
 331 585 l 1,2,-1
 198 585 l 1,3,-1
 215 668 l 1,4,-1
 595 668 l 1,5,-1
 578 585 l 1,6,-1
 444 585 l 1,7,-1
 337 83 l 1,8,-1
 471 83 l 1,9,-1
 453 0 l 1,10,11
 415 -7 415 -7 380.5 -30 c 128,-1,12
 346 -53 346 -53 346 -79 c 0,13,14
 346 -111 346 -111 394 -111 c 0,15,16
 402 -111 402 -111 430 -107 c 1,17,-1
 417 -167 l 1,18,19
 402 -172 402 -172 380 -172 c 0,20,21
 329 -172 329 -172 290 -152.5 c 128,-1,22
 251 -133 251 -133 251 -96 c 0,23,24
 251 -40 251 -40 334 0 c 1,25,-1
 73 0 l 1,26,-1
 91 83 l 1,0,-1
EndSplineSet
EndChar
StartChar: iogonek
Encoding: 303 303 156
Width: 632
GlyphClass: 2
Flags: W
AnchorPoint: "Anchor-1" 425 731 basechar 0
LayerCount: 2
Fore
SplineSet
73 84 m 1,0,-1
 244 84 l 1,1,-1
 313 412 l 1,2,-1
 167 412 l 1,3,-1
 186 496 l 1,4,-1
 441 496 l 1,5,-1
 353 84 l 1,6,-1
 524 84 l 1,7,-1
 506 0 l 1,8,9
 462 -9 462 -9 430 -31 c 128,-1,10
 398 -53 398 -53 398 -80 c 0,11,12
 398 -111 398 -111 447 -111 c 0,13,14
 465 -111 465 -111 483 -107 c 1,15,-1
 470 -168 l 1,16,17
 453 -172 453 -172 430 -172 c 0,18,19
 378 -172 378 -172 341 -152.5 c 128,-1,20
 304 -133 304 -133 304 -97 c 0,21,22
 304 -42 304 -42 384 0 c 1,23,-1
 54 0 l 1,24,-1
 73 84 l 1,0,-1
359 609 m 128,-1,26
 338 630 338 630 338 659 c 0,27,28
 338 689 338 689 359 710 c 128,-1,29
 380 731 380 731 409 731 c 0,30,31
 439 731 439 731 460 710 c 128,-1,32
 481 689 481 689 481 659 c 0,33,34
 481 630 481 630 460 609 c 128,-1,35
 439 588 439 588 409 588 c 0,36,25
 380 588 380 588 359 609 c 128,-1,26
EndSplineSet
EndChar
StartChar: Lslash
Encoding: 321 321 55
Width: 632
GlyphClass: 1
Flags: W
LayerCount: 2
Fore
SplineSet
122 241 m 1,0,-1
 18 188 l 1,1,-1
 39 286 l 1,2,-1
 143 340 l 1,3,-1
 213 668 l 1,4,-1
 326 668 l 1,5,-1
 270 405 l 1,6,-1
 467 505 l 1,7,-1
 446 406 l 1,8,-1
 249 306 l 1,9,-1
 205 99 l 1,10,-1
 551 99 l 1,11,-1
 530 0 l 1,12,-1
 71 0 l 1,13,-1
 122 241 l 1,0,-1
EndSplineSet
EndChar
StartChar: OE
Encoding: 338 338 70
Width: 632
GlyphClass: 2
Flags: W
AnchorPoint: "Anchor-1" 406 668 basechar 0
AnchorPoint: "Anchor-0" 264 0 basechar 0
LayerCount: 2
Fore
SplineSet
47.5 49.5 m 128,-1,1
 11 111 11 111 11 208 c 0,2,3
 11 301 11 301 41 411.5 c 128,-1,4
 71 522 71 522 132.5 601 c 128,-1,5
 194 680 194 680 283 680 c 0,6,7
 374 680 374 680 408 593 c 1,8,-1
 424 668 l 1,9,-1
 710 668 l 1,10,-1
 691 579 l 1,11,-1
 494 579 l 1,12,-1
 454 388 l 1,13,-1
 582 388 l 1,14,-1
 563 300 l 1,15,-1
 435 300 l 1,16,-1
 390 89 l 1,17,-1
 590 89 l 1,18,-1
 571 0 l 1,19,-1
 282 0 l 1,20,-1
 293 48 l 1,21,22
 235 -12 235 -12 166 -12 c 0,23,0
 84 -12 84 -12 47.5 49.5 c 128,-1,1
286.5 141 m 128,-1,25
 327 210 327 210 347.5 302.5 c 128,-1,26
 368 395 368 395 368 461 c 0,27,28
 368 522 368 522 348.5 559 c 128,-1,29
 329 596 329 596 284 596 c 0,30,31
 227 596 227 596 187 525 c 128,-1,32
 147 454 147 454 126.5 360.5 c 128,-1,33
 106 267 106 267 106 205 c 0,34,35
 106 145 106 145 125 108.5 c 128,-1,36
 144 72 144 72 189 72 c 0,37,24
 246 72 246 72 286.5 141 c 128,-1,25
EndSplineSet
EndChar
StartChar: oe
Encoding: 339 339 181
Width: 632
GlyphClass: 2
Flags: W
AnchorPoint: "Anchor-1" 365 496 basechar 0
AnchorPoint: "Anchor-0" 259 0 basechar 0
LayerCount: 2
Fore
SplineSet
335.5 13.5 m 128,-1,1
 304 39 304 39 291 83 c 1,2,3
 261 35 261 35 222.5 11.5 c 128,-1,4
 184 -12 184 -12 144 -12 c 0,5,6
 72 -12 72 -12 39 39 c 128,-1,7
 6 90 6 90 6 170 c 0,8,9
 6 241 6 241 30.5 320 c 128,-1,10
 55 399 55 399 105.5 454 c 128,-1,11
 156 509 156 509 230 509 c 0,12,13
 324 509 324 509 353 411 c 1,14,15
 381 458 381 458 419 483.5 c 128,-1,16
 457 509 457 509 501 509 c 0,17,18
 570 509 570 509 603.5 458 c 128,-1,19
 637 407 637 407 637 327 c 0,20,21
 637 276 637 276 625 226 c 1,22,-1
 356 226 l 1,23,24
 352 192 352 192 352 176 c 0,25,26
 352 125 352 125 370.5 94.5 c 128,-1,27
 389 64 389 64 429 64 c 0,28,29
 454 64 454 64 474 77 c 128,-1,30
 494 90 494 90 511 117 c 1,31,-1
 583 88 l 1,32,33
 548 38 548 38 506.5 13 c 128,-1,34
 465 -12 465 -12 419 -12 c 0,35,0
 367 -12 367 -12 335.5 13.5 c 128,-1,1
231 114 m 128,-1,37
 261 155 261 155 276 212 c 128,-1,38
 291 269 291 269 291 315 c 0,39,40
 291 363 291 363 275 393.5 c 128,-1,41
 259 424 259 424 221 424 c 0,42,43
 179 424 179 424 149 383 c 128,-1,44
 119 342 119 342 104 285 c 128,-1,45
 89 228 89 228 89 182 c 0,46,47
 89 134 89 134 105 103.5 c 128,-1,48
 121 73 121 73 158 73 c 0,49,36
 201 73 201 73 231 114 c 128,-1,37
555 337 m 0,51,52
 555 379 555 379 539 405 c 128,-1,53
 523 431 523 431 489 431 c 0,54,55
 447 431 447 431 417 392 c 128,-1,56
 387 353 387 353 369 292 c 1,57,-1
 551 292 l 1,58,50
 555 322 555 322 555 337 c 0,51,52
EndSplineSet
EndChar
StartChar: Scedilla
Encoding: 350 350 80
Width: 632
GlyphClass: 2
Flags: W
AnchorPoint: "Anchor-1" 395 668 basechar 0
LayerCount: 2
Fore
SplineSet
168 -157 m 1,1,-1
 190 -120 l 1,2,3
 219 -140 219 -140 256 -140 c 0,4,5
 274 -140 274 -140 286.5 -131 c 128,-1,6
 299 -122 299 -122 299 -107 c 0,7,8
 299 -95 299 -95 289 -88 c 128,-1,9
 279 -81 279 -81 263 -81 c 2,10,-1
 234 -83 l 2,11,12
 226 -83 226 -83 221.5 -79 c 128,-1,13
 217 -75 217 -75 217 -69 c 256,14,15
 217 -63 217 -63 224 -52 c 2,16,-1
 259 -10 l 1,17,18
 180 -1 180 -1 121.5 41.5 c 128,-1,19
 63 84 63 84 46 154 c 1,20,-1
 151 189 l 1,21,22
 160 137 160 137 204.5 108.5 c 128,-1,23
 249 80 249 80 308 80 c 0,24,25
 369 80 369 80 409.5 111.5 c 128,-1,26
 450 143 450 143 450 192 c 0,27,28
 450 227 450 227 420 249.5 c 128,-1,29
 390 272 390 272 340 289 c 2,30,-1
 271 313 l 2,31,32
 122 363 122 363 122 477 c 0,33,34
 122 537 122 537 157.5 583 c 128,-1,35
 193 629 193 629 252 654.5 c 128,-1,36
 311 680 311 680 379 680 c 0,37,38
 460 680 460 680 522 645.5 c 128,-1,39
 584 611 584 611 607 545 c 1,40,-1
 502 509 l 1,41,42
 488 546 488 546 450.5 567 c 128,-1,43
 413 588 413 588 367 588 c 0,44,45
 314 588 314 588 275.5 562.5 c 128,-1,46
 237 537 237 537 237 494 c 0,47,48
 237 463 237 463 257 443 c 128,-1,49
 277 423 277 423 316 409 c 2,50,-1
 391 382 l 2,51,52
 479 351 479 351 522.5 311.5 c 128,-1,53
 566 272 566 272 566 211 c 0,54,55
 566 148 566 148 531.5 98 c 128,-1,56
 497 48 497 48 437.5 19 c 128,-1,57
 378 -10 378 -10 306 -12 c 1,58,-1
 276 -47 l 1,59,60
 282 -45 282 -45 294 -45 c 0,61,62
 326 -45 326 -45 348.5 -60.5 c 128,-1,63
 371 -76 371 -76 371 -102 c 0,64,65
 371 -140 371 -140 340.5 -161 c 128,-1,66
 310 -182 310 -182 264 -182 c 0,67,0
 210 -182 210 -182 168 -157 c 1,1,-1
EndSplineSet
Substitution2: "'locl' Localized Forms in Latin lookup 4 subtable" uni0218
AlternateSubs2: "'aalt' Access All Alternates in Latin lookup 0 subtable" uni0218
EndChar
StartChar: scedilla
Encoding: 351 351 191
Width: 632
GlyphClass: 2
Flags: W
AnchorPoint: "Anchor-1" 362 496 basechar 0
LayerCount: 2
Fore
SplineSet
165 -157 m 1,1,-1
 187 -120 l 1,2,3
 216 -140 216 -140 253 -140 c 0,4,5
 271 -140 271 -140 283.5 -131 c 128,-1,6
 296 -122 296 -122 296 -107 c 0,7,8
 296 -95 296 -95 286 -88 c 128,-1,9
 276 -81 276 -81 260 -81 c 2,10,-1
 231 -83 l 2,11,12
 223 -83 223 -83 218.5 -79 c 128,-1,13
 214 -75 214 -75 214 -69 c 256,14,15
 214 -63 214 -63 221 -52 c 2,16,-1
 257 -9 l 1,17,18
 188 -1 188 -1 137 30.5 c 128,-1,19
 86 62 86 62 68 117 c 1,20,-1
 164 150 l 1,21,22
 174 109 174 109 215.5 90 c 128,-1,23
 257 71 257 71 308 71 c 0,24,25
 353 71 353 71 384 88.5 c 128,-1,26
 415 106 415 106 415 140 c 0,27,28
 415 163 415 163 395 177 c 128,-1,29
 375 191 375 191 331 205 c 2,30,-1
 252 230 l 2,31,32
 127 269 127 269 127 357 c 0,33,34
 127 405 127 405 156.5 439.5 c 128,-1,35
 186 474 186 474 234.5 491.5 c 128,-1,36
 283 509 283 509 338 509 c 0,37,38
 411 509 411 509 469 481.5 c 128,-1,39
 527 454 527 454 547 397 c 1,40,-1
 453 364 l 1,41,42
 443 397 443 397 407.5 412 c 128,-1,43
 372 427 372 427 329 427 c 0,44,45
 289 427 289 427 261 412 c 128,-1,46
 233 397 233 397 233 368 c 0,47,48
 233 349 233 349 250 335 c 128,-1,49
 267 321 267 321 299 311 c 2,50,-1
 381 285 l 2,51,52
 451 262 451 262 486 231.5 c 128,-1,53
 521 201 521 201 521 154 c 0,54,55
 521 106 521 106 494 68.5 c 128,-1,56
 467 31 467 31 417.5 9.5 c 128,-1,57
 368 -12 368 -12 303 -12 c 1,58,-1
 273 -47 l 1,59,60
 279 -45 279 -45 291 -45 c 0,61,62
 323 -45 323 -45 345.5 -60.5 c 128,-1,63
 368 -76 368 -76 368 -102 c 0,64,65
 368 -140 368 -140 337.5 -161 c 128,-1,66
 307 -182 307 -182 261 -182 c 0,67,0
 207 -182 207 -182 165 -157 c 1,1,-1
EndSplineSet
Substitution2: "'locl' Localized Forms in Latin lookup 4 subtable" uni0219
AlternateSubs2: "'aalt' Access All Alternates in Latin lookup 0 subtable" uni0219
EndChar
StartChar: uni0162
Encoding: 354 354 85
Width: 632
GlyphClass: 2
Flags: W
AnchorPoint: "Anchor-1" 405 668 basechar 0
LayerCount: 2
Fore
SplineSet
328 569 m 1,0,-1
 124 569 l 1,1,-1
 145 668 l 1,2,-1
 665 668 l 1,3,-1
 644 569 l 1,4,-1
 441 569 l 1,5,-1
 320 0 l 1,6,-1
 289 0 l 1,7,-1
 249 -47 l 1,8,9
 255 -45 255 -45 267 -45 c 0,10,11
 299 -45 299 -45 321 -60.5 c 128,-1,12
 343 -76 343 -76 343 -102 c 0,13,14
 343 -140 343 -140 313 -161 c 128,-1,15
 283 -182 283 -182 237 -182 c 0,16,17
 183 -182 183 -182 141 -157 c 1,18,-1
 163 -120 l 1,19,20
 177 -130 177 -130 194.5 -135 c 128,-1,21
 212 -140 212 -140 228 -140 c 0,22,23
 247 -140 247 -140 259 -131 c 128,-1,24
 271 -122 271 -122 271 -107 c 0,25,26
 271 -95 271 -95 261.5 -88 c 128,-1,27
 252 -81 252 -81 236 -81 c 2,28,-1
 207 -83 l 2,29,30
 199 -83 199 -83 194.5 -79 c 128,-1,31
 190 -75 190 -75 190 -69 c 0,32,33
 190 -60 190 -60 197 -52 c 2,34,-1
 240 0 l 1,35,-1
 207 0 l 1,36,-1
 328 569 l 1,0,-1
EndSplineSet
Substitution2: "'locl' Localized Forms in Latin lookup 4 subtable" uni021A
AlternateSubs2: "'aalt' Access All Alternates in Latin lookup 0 subtable" uni021A
EndChar
StartChar: Uring
Encoding: 366 366 95
Width: 632
GlyphClass: 2
Flags: W
AnchorPoint: "Anchor-3" 725 668 basechar 0
AnchorPoint: "Anchor-1" 427 900 basechar 0
LayerCount: 2
Fore
SplineSet
124.5 36.5 m 128,-1,1
 64 85 64 85 64 185 c 0,2,3
 64 233 64 233 75 282 c 2,4,-1
 157 668 l 1,5,-1
 270 668 l 1,6,-1
 183 257 l 2,7,8
 175 220 175 220 175 195 c 0,9,10
 175 81 175 81 302 81 c 0,11,12
 363 81 363 81 397 118 c 128,-1,13
 431 155 431 155 447 228 c 2,14,-1
 540 668 l 1,15,-1
 653 668 l 1,16,-1
 561 230 l 2,17,18
 535 106 535 106 474 47 c 128,-1,19
 413 -12 413 -12 305 -12 c 0,20,0
 185 -12 185 -12 124.5 36.5 c 128,-1,1
319.5 700.5 m 128,-1,22
 285 735 285 735 285 783 c 256,23,24
 285 831 285 831 319.5 865.5 c 128,-1,25
 354 900 354 900 403 900 c 0,26,27
 451 900 451 900 485 865.5 c 128,-1,28
 519 831 519 831 519 783 c 256,29,30
 519 735 519 735 485 700.5 c 128,-1,31
 451 666 451 666 403 666 c 0,32,21
 354 666 354 666 319.5 700.5 c 128,-1,22
437.5 748.5 m 128,-1,34
 452 763 452 763 452 783 c 0,35,36
 452 804 452 804 437.5 818.5 c 128,-1,37
 423 833 423 833 402 833 c 256,38,39
 381 833 381 833 366 818.5 c 128,-1,40
 351 804 351 804 351 783 c 0,41,42
 351 763 351 763 366 748.5 c 128,-1,43
 381 734 381 734 402 734 c 256,44,33
 423 734 423 734 437.5 748.5 c 128,-1,34
EndSplineSet
EndChar
StartChar: uogonek
Encoding: 371 371 205
Width: 632
GlyphClass: 2
Flags: W
AnchorPoint: "Anchor-3" 621 496 basechar 0
AnchorPoint: "Anchor-1" 362 496 basechar 0
LayerCount: 2
Fore
SplineSet
112.5 25.5 m 128,-1,1
 77 63 77 63 77 128 c 0,2,3
 77 160 77 160 84 192 c 2,4,-1
 149 496 l 1,5,-1
 258 496 l 1,6,-1
 197 209 l 2,7,8
 191 181 191 181 191 157 c 0,9,10
 191 75 191 75 272 75 c 0,11,12
 323 75 323 75 364.5 118.5 c 128,-1,13
 406 162 406 162 421 236 c 2,14,-1
 477 496 l 1,15,-1
 586 496 l 1,16,-1
 481 0 l 1,17,18
 437 -9 437 -9 405 -31 c 128,-1,19
 373 -53 373 -53 373 -80 c 0,20,21
 373 -111 373 -111 422 -111 c 0,22,23
 440 -111 440 -111 458 -107 c 1,24,-1
 445 -168 l 1,25,26
 428 -172 428 -172 405 -172 c 0,27,28
 353 -172 353 -172 316 -152.5 c 128,-1,29
 279 -133 279 -133 279 -97 c 0,30,31
 279 -33 279 -33 389 14 c 1,32,-1
 388 75 l 1,33,34
 358 37 358 37 315.5 12.5 c 128,-1,35
 273 -12 273 -12 220 -12 c 0,36,0
 148 -12 148 -12 112.5 25.5 c 128,-1,1
EndSplineSet
EndChar
StartChar: florin
Encoding: 402 402 286
Width: 632
GlyphClass: 1
Flags: W
LayerCount: 2
Fore
SplineSet
-8 -150 m 1,1,-1
 11 -57 l 1,2,3
 28 -65 28 -65 53 -70 c 128,-1,4
 78 -75 78 -75 96 -75 c 0,5,6
 145 -75 145 -75 172 -42 c 128,-1,7
 199 -9 199 -9 214 65 c 2,8,-1
 288 414 l 1,9,-1
 114 414 l 1,10,-1
 132 496 l 1,11,-1
 306 496 l 1,12,-1
 325 587 l 2,13,14
 335 637 335 637 351 664 c 128,-1,15
 367 691 367 691 394.5 702.5 c 128,-1,16
 422 714 422 714 468 714 c 2,17,-1
 652 714 l 1,18,-1
 634 626 l 1,19,-1
 479 626 l 2,20,21
 456 626 456 626 446 617.5 c 128,-1,22
 436 609 436 609 431 584 c 2,23,-1
 412 496 l 1,24,-1
 606 496 l 1,25,-1
 588 414 l 1,26,-1
 394 414 l 1,27,-1
 311 24 l 2,28,29
 288 -84 288 -84 237.5 -128 c 128,-1,30
 187 -172 187 -172 108 -172 c 0,31,0
 48 -172 48 -172 -8 -150 c 1,1,-1
EndSplineSet
EndChar
StartChar: uni0237
Encoding: 567 567 159
Width: 632
GlyphClass: 2
Flags: W
AnchorPoint: "Anchor-1" 406 496 basechar 0
AnchorPoint: "Anchor-0" 237 -251 basechar 0
LayerCount: 2
Fore
SplineSet
16 -73 m 1,0,-1
 190 -73 l 2,1,2
 221 -73 221 -73 234 -60 c 128,-1,3
 247 -47 247 -47 255 -8 c 2,4,-1
 343 412 l 1,5,-1
 197 412 l 1,6,-1
 216 496 l 1,7,-1
 471 496 l 1,8,-1
 360 -26 l 2,9,10
 349 -78 349 -78 331.5 -107 c 128,-1,11
 314 -136 314 -136 284 -149 c 128,-1,12
 254 -162 254 -162 206 -162 c 2,13,-1
 -3 -162 l 1,14,-1
 16 -73 l 1,0,-1
EndSplineSet
EndChar
StartChar: acutecomb
Encoding: 769 769 342
Width: 0
GlyphClass: 4
Flags: W
AnchorPoint: "Anchor-5" 369 714 basemark 0
AnchorPoint: "Anchor-5" 323 496 mark 0
AnchorPoint: "Anchor-1" 323 496 mark 0
LayerCount: 2
Fore
SplineSet
436.5 706 m 128,-1,1
 450 714 450 714 466 714 c 0,2,3
 484 714 484 714 494.5 704.5 c 128,-1,4
 505 695 505 695 505 681 c 0,5,6
 505 663 505 663 493.5 650 c 128,-1,7
 482 637 482 637 455 618 c 2,8,-1
 388 572 l 1,9,-1
 296 572 l 1,10,-1
 406 681 l 2,11,0
 423 698 423 698 436.5 706 c 128,-1,1
EndSplineSet
Substitution2: "Single Substitution lookup 12 subtable" acutecomb.case
Substitution2: "'case' Case-Sensitive Forms in Latin lookup 9 subtable" acutecomb.case
AlternateSubs2: "'aalt' Access All Alternates in Latin lookup 0 subtable" acutecomb.case
EndChar
StartChar: uni0306
Encoding: 774 774 351
Width: 0
GlyphClass: 4
Flags: W
AnchorPoint: "Anchor-5" 409 683 basemark 0
AnchorPoint: "Anchor-5" 369 496 mark 0
AnchorPoint: "Anchor-1" 369 496 mark 0
LayerCount: 2
Fore
SplineSet
310 598 m 128,-1,1
 279 629 279 629 276 680 c 1,2,-1
 339 680 l 1,3,4
 343 656 343 656 360.5 643.5 c 128,-1,5
 378 631 378 631 402 631 c 0,6,7
 430 631 430 631 450.5 646 c 128,-1,8
 471 661 471 661 477 680 c 1,9,-1
 541 680 l 1,10,11
 526 629 526 629 487 598 c 128,-1,12
 448 567 448 567 394 567 c 0,13,0
 341 567 341 567 310 598 c 128,-1,1
EndSplineSet
Substitution2: "Single Substitution lookup 12 subtable" uni0306.case
Substitution2: "'case' Case-Sensitive Forms in Latin lookup 9 subtable" uni0306.case
AlternateSubs2: "'aalt' Access All Alternates in Latin lookup 0 subtable" uni0306.case
EndChar
StartChar: uni0308
Encoding: 776 776 335
Width: 0
GlyphClass: 4
Flags: W
AnchorPoint: "Anchor-5" 414 707 basemark 0
AnchorPoint: "Anchor-5" 370 496 mark 0
AnchorPoint: "Anchor-1" 370 496 mark 0
LayerCount: 2
Fore
SplineSet
450.5 602.5 m 128,-1,1
 432 621 432 621 432 646 c 256,2,3
 432 671 432 671 450.5 689 c 128,-1,4
 469 707 469 707 494 707 c 256,5,6
 519 707 519 707 537 689 c 128,-1,7
 555 671 555 671 555 646 c 256,8,9
 555 621 555 621 537 602.5 c 128,-1,10
 519 584 519 584 494 584 c 256,11,0
 469 584 469 584 450.5 602.5 c 128,-1,1
265 602.5 m 128,-1,13
 247 621 247 621 247 646 c 256,14,15
 247 671 247 671 265 689 c 128,-1,16
 283 707 283 707 308 707 c 256,17,18
 333 707 333 707 351.5 689 c 128,-1,19
 370 671 370 671 370 646 c 256,20,21
 370 621 370 621 352 602.5 c 128,-1,22
 334 584 334 584 308 584 c 0,23,12
 283 584 283 584 265 602.5 c 128,-1,13
EndSplineSet
Substitution2: "Single Substitution lookup 12 subtable" uni0308.case
Substitution2: "'case' Case-Sensitive Forms in Latin lookup 9 subtable" uni0308.case
AlternateSubs2: "'aalt' Access All Alternates in Latin lookup 0 subtable" uni0308.case
EndChar
StartChar: uni030A
Encoding: 778 778 353
Width: 0
GlyphClass: 4
Flags: W
AnchorPoint: "Anchor-5" 429 781 basemark 0
AnchorPoint: "Anchor-5" 368 496 mark 0
AnchorPoint: "Anchor-1" 368 496 mark 0
LayerCount: 2
Fore
SplineSet
325.5 588.5 m 128,-1,1
 292 622 292 622 292 668 c 0,2,3
 292 715 292 715 325 748 c 128,-1,4
 358 781 358 781 405 781 c 256,5,6
 452 781 452 781 485.5 748 c 128,-1,7
 519 715 519 715 519 668 c 256,8,9
 519 621 519 621 485.5 588 c 128,-1,10
 452 555 452 555 405 555 c 0,11,0
 359 555 359 555 325.5 588.5 c 128,-1,1
441 631.5 m 128,-1,13
 456 647 456 647 456 668 c 0,14,15
 456 690 456 690 441.5 705 c 128,-1,16
 427 720 427 720 405 720 c 0,17,18
 384 720 384 720 369 705 c 128,-1,19
 354 690 354 690 354 668 c 0,20,21
 354 647 354 647 369 631.5 c 128,-1,22
 384 616 384 616 405 616 c 256,23,12
 426 616 426 616 441 631.5 c 128,-1,13
EndSplineSet
Substitution2: "Single Substitution lookup 12 subtable" uni030A.case
Substitution2: "'case' Case-Sensitive Forms in Latin lookup 9 subtable" uni030A.case
AlternateSubs2: "'aalt' Access All Alternates in Latin lookup 0 subtable" uni030A.case
EndChar
StartChar: uni030B
Encoding: 779 779 344
Width: 0
GlyphClass: 4
Flags: W
AnchorPoint: "Anchor-5" 466 713 basemark 0
AnchorPoint: "Anchor-5" 330 496 mark 0
AnchorPoint: "Anchor-1" 330 496 mark 0
LayerCount: 2
Fore
SplineSet
349.5 705.5 m 128,-1,1
 363 713 363 713 378 713 c 0,2,3
 396 713 396 713 406.5 704.5 c 128,-1,4
 417 696 417 696 417 682 c 0,5,6
 417 664 417 664 405 651 c 128,-1,7
 393 638 393 638 366 619 c 2,8,-1
 299 572 l 1,9,-1
 211 572 l 1,10,-1
 319 681 l 2,11,0
 336 698 336 698 349.5 705.5 c 128,-1,1
523.5 705.5 m 128,-1,13
 537 713 537 713 553 713 c 0,14,15
 571 713 571 713 581.5 704 c 128,-1,16
 592 695 592 695 592 682 c 0,17,18
 592 664 592 664 580 651 c 128,-1,19
 568 638 568 638 540 619 c 2,20,-1
 474 572 l 1,21,-1
 385 572 l 1,22,-1
 493 681 l 2,23,12
 510 698 510 698 523.5 705.5 c 128,-1,13
EndSplineSet
Substitution2: "Single Substitution lookup 12 subtable" uni030B.case
Substitution2: "'case' Case-Sensitive Forms in Latin lookup 9 subtable" uni030B.case
AlternateSubs2: "'aalt' Access All Alternates in Latin lookup 0 subtable" uni030B.case
EndChar
StartChar: uni030C
Encoding: 780 780 349
Width: 0
GlyphClass: 4
Flags: W
AnchorPoint: "Anchor-5" 412 700 basemark 0
AnchorPoint: "Anchor-5" 369 496 mark 0
AnchorPoint: "Anchor-1" 369 496 mark 0
LayerCount: 2
Fore
SplineSet
342 589 m 2,1,-1
 249 700 l 1,2,-1
 340 700 l 1,3,-1
 395 639 l 1,4,-1
 477 700 l 1,5,-1
 576 700 l 1,6,-1
 436 589 l 2,7,8
 411 569 411 569 385 569 c 256,9,0
 359 569 359 569 342 589 c 2,1,-1
EndSplineSet
Substitution2: "Single Substitution lookup 12 subtable" uni030C.case
Substitution2: "'case' Case-Sensitive Forms in Latin lookup 9 subtable" uni030C.case
AlternateSubs2: "'aalt' Access All Alternates in Latin lookup 0 subtable" uni030C.case
EndChar
StartChar: uni0326
Encoding: 806 806 359
Width: 0
GlyphClass: 4
Flags: W
AnchorPoint: "Anchor-4" 212 -243 basemark 0
AnchorPoint: "Anchor-4" 263 0 mark 0
AnchorPoint: "Anchor-0" 263 0 mark 0
LayerCount: 2
Fore
SplineSet
204 -184.5 m 128,-1,1
 237 -167 237 -167 237 -128 c 0,2,3
 237 -96 237 -96 201 -75 c 1,4,-1
 274 -49 l 1,5,6
 323 -81 323 -81 323 -126 c 0,7,8
 323 -164 323 -164 299 -191 c 128,-1,9
 275 -218 275 -218 238.5 -230.5 c 128,-1,10
 202 -243 202 -243 164 -240 c 1,11,-1
 130 -200 l 1,12,0
 171 -202 171 -202 204 -184.5 c 128,-1,1
EndSplineSet
EndChar
StartChar: uni0327
Encoding: 807 807 360
Width: 0
GlyphClass: 4
Flags: W
AnchorPoint: "Anchor-4" 219 -183 basemark 0
AnchorPoint: "Anchor-4" 258 0 mark 0
AnchorPoint: "Anchor-0" 258 0 mark 0
LayerCount: 2
Fore
SplineSet
133 -157 m 1,1,-1
 155 -120 l 1,2,3
 184 -140 184 -140 221 -140 c 0,4,5
 239 -140 239 -140 251.5 -131 c 128,-1,6
 264 -122 264 -122 264 -107 c 0,7,8
 264 -95 264 -95 254 -88 c 128,-1,9
 244 -81 244 -81 228 -81 c 2,10,-1
 199 -83 l 2,11,12
 191 -83 191 -83 186.5 -79 c 128,-1,13
 182 -75 182 -75 182 -69 c 256,14,15
 182 -63 182 -63 189 -52 c 2,16,-1
 253 25 l 1,17,-1
 285 5 l 1,18,-1
 241 -47 l 1,19,20
 247 -45 247 -45 259 -45 c 0,21,22
 291 -45 291 -45 313.5 -60.5 c 128,-1,23
 336 -76 336 -76 336 -102 c 0,24,25
 336 -140 336 -140 305.5 -161 c 128,-1,26
 275 -182 275 -182 229 -182 c 0,27,0
 175 -182 175 -182 133 -157 c 1,1,-1
EndSplineSet
EndChar
StartChar: uni03A9
Encoding: 937 937 226
Width: 632
GlyphClass: 1
Flags: W
LayerCount: 2
Fore
SplineSet
-4 85 m 1,0,-1
 144 85 l 1,1,-1
 155 138 l 1,2,3
 108 169 108 169 82 223 c 128,-1,4
 56 277 56 277 56 343 c 0,5,6
 56 433 56 433 99.5 510.5 c 128,-1,7
 143 588 143 588 217.5 634 c 128,-1,8
 292 680 292 680 380 680 c 0,9,10
 455 680 455 680 512.5 646 c 128,-1,11
 570 612 570 612 602 553 c 128,-1,12
 634 494 634 494 634 424 c 0,13,14
 634 332 634 332 583 253.5 c 128,-1,15
 532 175 532 175 427 130 c 1,16,-1
 418 85 l 1,17,-1
 566 85 l 1,18,-1
 548 0 l 1,19,-1
 307 0 l 1,20,-1
 347 190 l 1,21,22
 435 207 435 207 489 267 c 128,-1,23
 543 327 543 327 543 412 c 0,24,25
 543 466 543 466 520.5 507.5 c 128,-1,26
 498 549 498 549 458.5 571.5 c 128,-1,27
 419 594 419 594 370 594 c 0,28,29
 309 594 309 594 258 561.5 c 128,-1,30
 207 529 207 529 177 475 c 128,-1,31
 147 421 147 421 147 360 c 256,32,33
 147 299 147 299 177.5 252.5 c 128,-1,34
 208 206 208 206 260 190 c 1,35,-1
 220 0 l 1,36,-1
 -22 0 l 1,37,-1
 -4 85 l 1,0,-1
EndSplineSet
EndChar
StartChar: pi
Encoding: 960 960 228
Width: 632
GlyphClass: 1
Flags: W
LayerCount: 2
Fore
SplineSet
160 413 m 1,0,-1
 78 413 l 1,1,-1
 96 496 l 1,2,-1
 622 496 l 1,3,-1
 604 413 l 1,4,-1
 518 413 l 1,5,-1
 460 138 l 2,6,7
 456 116 456 116 456 111 c 0,8,9
 456 93 456 93 467 86.5 c 128,-1,10
 478 80 478 80 505 80 c 2,11,-1
 533 80 l 1,12,-1
 516 0 l 1,13,-1
 479 0 l 2,14,15
 410 0 410 0 382.5 16 c 128,-1,16
 355 32 355 32 355 73 c 0,17,18
 355 90 355 90 362 127 c 2,19,-1
 423 413 l 1,20,-1
 255 413 l 1,21,-1
 167 0 l 1,22,-1
 72 0 l 1,23,-1
 160 413 l 1,0,-1
EndSplineSet
EndChar
StartChar: quoteleft
Encoding: 8216 8216 278
Width: 632
GlyphClass: 1
Flags: W
LayerCount: 2
Fore
SplineSet
300 393 m 128,-1,1
 276 417 276 417 276 448 c 0,2,3
 276 463 276 463 280.5 475.5 c 128,-1,4
 285 488 285 488 295 504 c 2,5,-1
 402 674 l 1,6,-1
 480 674 l 1,7,-1
 389 530 l 1,8,9
 414 521 414 521 428 499.5 c 128,-1,10
 442 478 442 478 442 453 c 0,11,12
 442 418 442 418 417.5 393.5 c 128,-1,13
 393 369 393 369 358 369 c 0,14,0
 324 369 324 369 300 393 c 128,-1,1
EndSplineSet
EndChar
StartChar: quotedblleft
Encoding: 8220 8220 276
Width: 632
GlyphClass: 1
Flags: W
LayerCount: 2
Fore
SplineSet
412 396 m 128,-1,1
 389 419 389 419 389 451 c 0,2,3
 389 476 389 476 407 504 c 2,4,-1
 512 668 l 1,5,-1
 589 668 l 1,6,-1
 499 529 l 1,7,8
 522 520 522 520 536.5 499.5 c 128,-1,9
 551 479 551 479 551 454 c 0,10,11
 551 420 551 420 527 396.5 c 128,-1,12
 503 373 503 373 470 373 c 0,13,0
 435 373 435 373 412 396 c 128,-1,1
190 396 m 128,-1,15
 167 419 167 419 167 451 c 0,16,17
 167 478 167 478 185 504 c 2,18,-1
 289 668 l 1,19,-1
 367 668 l 1,20,-1
 276 529 l 1,21,22
 299 520 299 520 313.5 499.5 c 128,-1,23
 328 479 328 479 328 454 c 0,24,25
 328 420 328 420 304.5 396.5 c 128,-1,26
 281 373 281 373 247 373 c 256,27,14
 213 373 213 373 190 396 c 128,-1,15
EndSplineSet
EndChar
StartChar: quotedblright
Encoding: 8221 8221 277
Width: 632
GlyphClass: 1
Flags: W
LayerCount: 2
Fore
SplineSet
436.5 553.5 m 128,-1,1
 422 574 422 574 422 599 c 0,2,3
 422 633 422 633 446 656.5 c 128,-1,4
 470 680 470 680 503 680 c 0,5,6
 538 680 538 680 561 657 c 128,-1,7
 584 634 584 634 584 602 c 0,8,9
 584 578 584 578 566 549 c 2,10,-1
 461 385 l 1,11,-1
 384 385 l 1,12,-1
 474 524 l 1,13,0
 451 533 451 533 436.5 553.5 c 128,-1,1
214.5 553.5 m 128,-1,15
 200 574 200 574 200 599 c 0,16,17
 200 633 200 633 223.5 656.5 c 128,-1,18
 247 680 247 680 281 680 c 256,19,20
 315 680 315 680 338 657 c 128,-1,21
 361 634 361 634 361 602 c 0,22,23
 361 575 361 575 343 549 c 2,24,-1
 239 385 l 1,25,-1
 161 385 l 1,26,-1
 252 524 l 1,27,14
 229 533 229 533 214.5 553.5 c 128,-1,15
EndSplineSet
EndChar
StartChar: daggerdbl
Encoding: 8225 8225 300
Width: 632
GlyphClass: 1
Flags: W
LayerCount: 2
Fore
SplineSet
250 172 m 1,0,-1
 62 172 l 1,1,-1
 81 263 l 1,2,-1
 270 263 l 1,3,-1
 299 404 l 1,4,-1
 111 404 l 1,5,-1
 130 496 l 1,6,-1
 319 496 l 1,7,-1
 356 668 l 1,8,-1
 457 668 l 1,9,-1
 420 496 l 1,10,-1
 608 496 l 1,11,-1
 589 404 l 1,12,-1
 401 404 l 1,13,-1
 371 263 l 1,14,-1
 559 263 l 1,15,-1
 540 172 l 1,16,-1
 352 172 l 1,17,-1
 315 0 l 1,18,-1
 214 0 l 1,19,-1
 250 172 l 1,0,-1
EndSplineSet
EndChar
StartChar: ellipsis
Encoding: 8230 8230 253
Width: 632
GlyphClass: 1
Flags: W
LayerCount: 2
Fore
SplineSet
19.5 10 m 128,-1,1
 -2 32 -2 32 -2 63 c 256,2,3
 -2 94 -2 94 19.5 115 c 128,-1,4
 41 136 41 136 72 136 c 256,5,6
 103 136 103 136 124.5 115 c 128,-1,7
 146 94 146 94 146 63 c 256,8,9
 146 32 146 32 124.5 10 c 128,-1,10
 103 -12 103 -12 72 -12 c 256,11,0
 41 -12 41 -12 19.5 10 c 128,-1,1
225 10 m 128,-1,13
 203 32 203 32 203 63 c 256,14,15
 203 94 203 94 225 115 c 128,-1,16
 247 136 247 136 278 136 c 256,17,18
 309 136 309 136 330.5 115 c 128,-1,19
 352 94 352 94 352 63 c 256,20,21
 352 32 352 32 330.5 10 c 128,-1,22
 309 -12 309 -12 278 -12 c 256,23,12
 247 -12 247 -12 225 10 c 128,-1,13
431 10 m 128,-1,25
 409 32 409 32 409 63 c 256,26,27
 409 94 409 94 431 115 c 128,-1,28
 453 136 453 136 484 136 c 256,29,30
 515 136 515 136 536.5 115 c 128,-1,31
 558 94 558 94 558 63 c 256,32,33
 558 32 558 32 536.5 10 c 128,-1,34
 515 -12 515 -12 484 -12 c 256,35,24
 453 -12 453 -12 431 10 c 128,-1,25
EndSplineSet
EndChar
StartChar: perthousand
Encoding: 8240 8240 333
Width: 632
GlyphClass: 1
Flags: W
LayerCount: 2
Fore
SplineSet
174.5 438.5 m 128,-1,1
 144 456 144 456 126.5 486 c 128,-1,2
 109 516 109 516 109 552 c 0,3,4
 109 587 109 587 126.5 617.5 c 128,-1,5
 144 648 144 648 174.5 665.5 c 128,-1,6
 205 683 205 683 240 683 c 0,7,8
 276 683 276 683 306 665.5 c 128,-1,9
 336 648 336 648 353.5 617.5 c 128,-1,10
 371 587 371 587 371 552 c 0,11,12
 371 516 371 516 353.5 486 c 128,-1,13
 336 456 336 456 306 438.5 c 128,-1,14
 276 421 276 421 240 421 c 0,15,0
 205 421 205 421 174.5 438.5 c 128,-1,1
287.5 503.5 m 128,-1,17
 307 523 307 523 307 552 c 0,18,19
 307 580 307 580 287.5 600 c 128,-1,20
 268 620 268 620 240 620 c 256,21,22
 212 620 212 620 192.5 600 c 128,-1,23
 173 580 173 580 173 552 c 256,24,25
 173 524 173 524 192.5 504 c 128,-1,26
 212 484 212 484 240 484 c 256,27,16
 268 484 268 484 287.5 503.5 c 128,-1,17
82.5 4.5 m 128,-1,29
 52 22 52 22 34.5 52 c 128,-1,30
 17 82 17 82 17 118 c 0,31,32
 17 153 17 153 34.5 183.5 c 128,-1,33
 52 214 52 214 82.5 231.5 c 128,-1,34
 113 249 113 249 148 249 c 0,35,36
 184 249 184 249 214 231.5 c 128,-1,37
 244 214 244 214 261.5 183.5 c 128,-1,38
 279 153 279 153 279 118 c 0,39,40
 279 82 279 82 261.5 52 c 128,-1,41
 244 22 244 22 214 4.5 c 128,-1,42
 184 -13 184 -13 148 -13 c 0,43,28
 113 -13 113 -13 82.5 4.5 c 128,-1,29
195.5 69.5 m 128,-1,45
 215 89 215 89 215 118 c 0,46,47
 215 146 215 146 195.5 166 c 128,-1,48
 176 186 176 186 148 186 c 256,49,50
 120 186 120 186 100.5 166 c 128,-1,51
 81 146 81 146 81 118 c 256,52,53
 81 90 81 90 100.5 70 c 128,-1,54
 120 50 120 50 148 50 c 256,55,44
 176 50 176 50 195.5 69.5 c 128,-1,45
368.5 4.5 m 128,-1,57
 338 22 338 22 320.5 52 c 128,-1,58
 303 82 303 82 303 118 c 0,59,60
 303 153 303 153 320.5 183.5 c 128,-1,61
 338 214 338 214 368.5 231.5 c 128,-1,62
 399 249 399 249 434 249 c 0,63,64
 470 249 470 249 500 231.5 c 128,-1,65
 530 214 530 214 547.5 183.5 c 128,-1,66
 565 153 565 153 565 118 c 0,67,68
 565 82 565 82 547.5 52 c 128,-1,69
 530 22 530 22 500 4.5 c 128,-1,70
 470 -13 470 -13 434 -13 c 0,71,56
 399 -13 399 -13 368.5 4.5 c 128,-1,57
481.5 69.5 m 128,-1,73
 501 89 501 89 501 118 c 0,74,75
 501 146 501 146 481.5 166 c 128,-1,76
 462 186 462 186 434 186 c 256,77,78
 406 186 406 186 386.5 166 c 128,-1,79
 367 146 367 146 367 118 c 256,80,81
 367 90 367 90 386.5 70 c 128,-1,82
 406 50 406 50 434 50 c 256,83,72
 462 50 462 50 481.5 69.5 c 128,-1,73
64 331 m 1,84,-1
 647 514 l 1,85,-1
 630 436 l 1,86,-1
 47 253 l 1,87,-1
 64 331 l 1,84,-1
EndSplineSet
EndChar
StartChar: guilsinglright
Encoding: 8250 8250 283
Width: 632
GlyphClass: 1
Flags: W
LayerCount: 2
Fore
SplineSet
332 257 m 1,0,-1
 226 460 l 1,1,-1
 342 460 l 1,2,-1
 453 250 l 1,3,-1
 264 40 l 1,4,-1
 136 40 l 1,5,-1
 332 257 l 1,0,-1
EndSplineSet
EndChar
StartChar: uni20B9
Encoding: 8377 8377 306
Width: 632
GlyphClass: 1
Flags: W
LayerCount: 2
Fore
SplineSet
95 290 m 1,0,-1
 107 346 l 1,1,-1
 272 346 l 2,2,3
 325 346 325 346 358.5 368.5 c 128,-1,4
 392 391 392 391 403 432 c 1,5,-1
 125 432 l 1,6,-1
 138 491 l 1,7,-1
 409 491 l 1,8,9
 401 577 401 577 256 577 c 2,10,-1
 156 577 l 1,11,-1
 175 668 l 1,12,-1
 653 668 l 1,13,-1
 640 610 l 1,14,-1
 457 610 l 1,15,16
 519 564 519 564 523 491 c 1,17,-1
 615 491 l 1,18,-1
 603 432 l 1,19,-1
 518 432 l 1,20,21
 505 354 505 354 444 308.5 c 128,-1,22
 383 263 383 263 288 258 c 1,23,-1
 249 258 l 1,24,-1
 458 0 l 1,25,-1
 325 0 l 1,26,-1
 95 290 l 1,0,-1
EndSplineSet
EndChar
StartChar: uni2113
Encoding: 8467 8467 299
Width: 632
GlyphClass: 1
Flags: W
LayerCount: 2
Fore
SplineSet
209.5 21 m 128,-1,1
 174 54 174 54 174 113 c 0,2,3
 174 131 174 131 177 150 c 2,4,-1
 182 178 l 1,5,-1
 106 130 l 1,6,-1
 124 214 l 1,7,-1
 201 264 l 1,8,-1
 250 500 l 2,9,10
 270 592 270 592 315 636 c 128,-1,11
 360 680 360 680 424 680 c 0,12,13
 489 680 489 680 522.5 648.5 c 128,-1,14
 556 617 556 617 556 562 c 0,15,16
 556 498 556 498 520.5 442.5 c 128,-1,17
 485 387 485 387 432 343.5 c 128,-1,18
 379 300 379 300 305 253 c 1,19,-1
 289 172 l 2,20,21
 285 148 285 148 285 136 c 0,22,23
 285 76 285 76 343 76 c 0,24,25
 385 76 385 76 426 104 c 1,26,-1
 454 32 l 1,27,28
 428 12 428 12 391 0 c 128,-1,29
 354 -12 354 -12 318 -12 c 0,30,0
 245 -12 245 -12 209.5 21 c 128,-1,1
426 440.5 m 128,-1,32
 466 497 466 497 466 553 c 0,33,34
 466 577 466 577 455 589 c 128,-1,35
 444 601 444 601 425 601 c 0,36,37
 378 601 378 601 361 516 c 2,38,-1
 324 344 l 1,39,31
 386 384 386 384 426 440.5 c 128,-1,32
EndSplineSet
EndChar
StartChar: estimated
Encoding: 8494 8494 301
Width: 632
GlyphClass: 1
Flags: W
LayerCount: 2
Fore
SplineSet
197 20.5 m 128,-1,1
 137 53 137 53 100 113.5 c 128,-1,2
 63 174 63 174 63 254 c 0,3,4
 63 318 63 318 96.5 376 c 128,-1,5
 130 434 130 434 190 470 c 128,-1,6
 250 506 250 506 323 506 c 0,7,8
 393 506 393 506 452 471.5 c 128,-1,9
 511 437 511 437 546 377.5 c 128,-1,10
 581 318 581 318 581 248 c 1,11,-1
 180 248 l 1,12,-1
 180 87 l 1,13,14
 208 61 208 61 245 47 c 128,-1,15
 282 33 282 33 323 33 c 0,16,17
 371 33 371 33 413 53 c 128,-1,18
 455 73 455 73 485 108 c 1,19,-1
 530 93 l 1,20,21
 494 44 494 44 440 16 c 128,-1,22
 386 -12 386 -12 323 -12 c 0,23,0
 257 -12 257 -12 197 20.5 c 128,-1,1
465 291 m 1,24,-1
 465 407 l 1,25,26
 436 433 436 433 399.5 447.5 c 128,-1,27
 363 462 363 462 323 462 c 0,28,29
 282 462 282 462 245 447.5 c 128,-1,30
 208 433 208 433 180 407 c 1,31,-1
 180 291 l 1,32,-1
 465 291 l 1,24,-1
EndSplineSet
EndChar
StartChar: partialdiff
Encoding: 8706 8706 331
Width: 632
GlyphClass: 1
Flags: W
LayerCount: 2
Fore
SplineSet
172 13.5 m 128,-1,1
 122 39 122 39 94 86.5 c 128,-1,2
 66 134 66 134 66 196 c 0,3,4
 66 269 66 269 99 333.5 c 128,-1,5
 132 398 132 398 190.5 436.5 c 128,-1,6
 249 475 249 475 324 475 c 0,7,8
 386 475 386 475 431 446.5 c 128,-1,9
 476 418 476 418 489 363 c 1,10,11
 493 435 493 435 458.5 485.5 c 128,-1,12
 424 536 424 536 362.5 562.5 c 128,-1,13
 301 589 301 589 222 591 c 1,14,-1
 241 680 l 1,15,16
 402 665 402 665 490 591.5 c 128,-1,17
 578 518 578 518 578 385 c 0,18,19
 578 297 578 297 549.5 205.5 c 128,-1,20
 521 114 521 114 455.5 51 c 128,-1,21
 390 -12 390 -12 286 -12 c 0,22,0
 222 -12 222 -12 172 13.5 c 128,-1,1
378 107 m 128,-1,24
 413 137 413 137 429.5 180.5 c 128,-1,25
 446 224 446 224 446 264 c 0,26,27
 446 319 446 319 415.5 352.5 c 128,-1,28
 385 386 385 386 331 386 c 0,29,30
 281 386 281 386 246 358 c 128,-1,31
 211 330 211 330 193 287.5 c 128,-1,32
 175 245 175 245 175 202 c 0,33,34
 175 146 175 146 205.5 111.5 c 128,-1,35
 236 77 236 77 291 77 c 0,36,23
 343 77 343 77 378 107 c 128,-1,24
EndSplineSet
EndChar
StartChar: infinity
Encoding: 8734 8734 326
Width: 632
GlyphClass: 1
Flags: W
LayerCount: 2
Fore
SplineSet
51.5 137.5 m 128,-1,1
 13 172 13 172 13 232 c 0,2,3
 13 278 13 278 33.5 319 c 128,-1,4
 54 360 54 360 92 384.5 c 128,-1,5
 130 409 130 409 179 409 c 0,6,7
 222 409 222 409 255.5 387.5 c 128,-1,8
 289 366 289 366 325 325 c 1,9,10
 376 369 376 369 409.5 389 c 128,-1,11
 443 409 443 409 485 409 c 0,12,13
 545 409 545 409 583.5 375 c 128,-1,14
 622 341 622 341 622 280 c 0,15,16
 622 234 622 234 601.5 193 c 128,-1,17
 581 152 581 152 543 127.5 c 128,-1,18
 505 103 505 103 456 103 c 0,19,20
 413 103 413 103 379.5 125 c 128,-1,21
 346 147 346 147 310 188 c 1,22,23
 262 144 262 144 227.5 123.5 c 128,-1,24
 193 103 193 103 150 103 c 0,25,0
 90 103 90 103 51.5 137.5 c 128,-1,1
208 199 m 128,-1,27
 232 214 232 214 271 253 c 1,28,29
 246 292 246 292 226.5 310 c 128,-1,30
 207 328 207 328 176 328 c 0,31,32
 142 328 142 328 120.5 303 c 128,-1,33
 99 278 99 278 99 246 c 0,34,35
 99 219 99 219 114.5 201.5 c 128,-1,36
 130 184 130 184 159 184 c 0,37,26
 184 184 184 184 208 199 c 128,-1,27
515 209.5 m 128,-1,39
 537 235 537 235 537 267 c 0,40,41
 537 294 537 294 521 311 c 128,-1,42
 505 328 505 328 477 328 c 0,43,44
 451 328 451 328 427 313 c 128,-1,45
 403 298 403 298 365 259 c 1,46,47
 390 220 390 220 409 202 c 128,-1,48
 428 184 428 184 460 184 c 0,49,38
 493 184 493 184 515 209.5 c 128,-1,39
EndSplineSet
EndChar
StartChar: uni0328.case
Encoding: 65554 -1 363
Width: 0
GlyphClass: 4
Flags: W
AnchorPoint: "Anchor-2" 358 10 mark 0
LayerCount: 2
Fore
SplineSet
193 -152.5 m 128,-1,1
 154 -133 154 -133 154 -96 c 0,2,3
 154 -31 154 -31 258 9 c 1,4,-1
 355 0 l 1,5,6
 320 -6 320 -6 284.5 -29 c 128,-1,7
 249 -52 249 -52 249 -79 c 0,8,9
 249 -111 249 -111 297 -111 c 0,10,11
 305 -111 305 -111 333 -107 c 1,12,-1
 320 -167 l 1,13,14
 305 -172 305 -172 283 -172 c 0,15,0
 232 -172 232 -172 193 -152.5 c 128,-1,1
EndSplineSet
EndChar
StartChar: zero.zero
Encoding: 65539 -1 239
Width: 632
GlyphClass: 1
Flags: W
LayerCount: 2
Fore
SplineSet
115 57 m 128,-1,1
 55 126 55 126 55 245 c 0,2,3
 55 342 55 342 89 443 c 128,-1,4
 123 544 123 544 196 613 c 128,-1,5
 269 682 269 682 378 682 c 0,6,7
 495 682 495 682 555 612.5 c 128,-1,8
 615 543 615 543 615 426 c 0,9,10
 615 330 615 330 580.5 228.5 c 128,-1,11
 546 127 546 127 473.5 57.5 c 128,-1,12
 401 -12 401 -12 292 -12 c 0,13,0
 175 -12 175 -12 115 57 c 128,-1,1
414 132 m 128,-1,15
 462 192 462 192 484 275 c 128,-1,16
 506 358 506 358 506 428 c 0,17,18
 506 505 506 505 475 551.5 c 128,-1,19
 444 598 444 598 376 598 c 0,20,21
 305 598 305 598 257 538.5 c 128,-1,22
 209 479 209 479 186 395 c 128,-1,23
 163 311 163 311 163 240 c 0,24,25
 163 163 163 163 194 117.5 c 128,-1,26
 225 72 225 72 294 72 c 0,27,14
 366 72 366 72 414 132 c 128,-1,15
287.5 286.5 m 128,-1,29
 267 307 267 307 267 335 c 256,30,31
 267 363 267 363 287 383 c 128,-1,32
 307 403 307 403 336 403 c 256,33,34
 365 403 365 403 384.5 383.5 c 128,-1,35
 404 364 404 364 404 335 c 256,36,37
 404 306 404 306 384 286 c 128,-1,38
 364 266 364 266 336 266 c 256,39,28
 308 266 308 266 287.5 286.5 c 128,-1,29
EndSplineSet
EndChar
